<?xml version="1.0" encoding="utf-8"?>
<!-- Generator: Adobe Illustrator 22.1.0, SVG Export Plug-In . SVG Version: 6.00 Build 0)  -->
<svg version="1.1" id="Layer_1" xmlns="http://www.w3.org/2000/svg" xmlns:xlink="http://www.w3.org/1999/xlink" x="0px" y="0px"
	 viewBox="0 0 355.9 95.7" style="enable-background:new 0 0 355.9 95.7;" xml:space="preserve">
<style type="text/css">
	.st0{fill:#A72024;}
</style>
<g id="AnimeFest_Logo">
	<path class="st0" d="M21.2,68.5l-0.1-0.6l-4.6,0.6l0.1,0.6L21.2,68.5z M16.8,70.3l4.3-0.5c0.2,0,0.3-0.1,0.3-0.3l0-0.2l-4.6,0.6
		L16.8,70.3z M21.7,72.8c0.2,0,0.3-0.1,0.2-0.3l-0.1-0.7L20.8,72l0.1,0.9L21.7,72.8z M19.9,73l-0.1-0.9l-1.1,0.1l0.1,0.9L19.9,73z
		 M117.1,30.7l-0.2-1.6l-1.1,0.1l0.2,1.6L117.1,30.7z M113.9,31.1l1-0.1l-0.2-1.6l-1,0.1L113.9,31.1z M106.2,33l-0.1-0.9l-1.1,0.1
		l0.1,0.9L106.2,33z M103,30.3l4.3-0.5c0.2,0,0.3-0.1,0.3-0.3l0-0.2l-4.6,0.6L103,30.3z M107.9,32.8c0.2,0,0.3-0.1,0.2-0.3l-0.1-0.7
		L107,32l0.1,0.9L107.9,32.8z M107.5,28.4l-0.1-0.6l-4.6,0.6l0.1,0.6L107.5,28.4z M114.2,33.8l1-0.1L115,32l-1,0.1L114.2,33.8z
		 M116.3,33.5l0.8-0.1c0.2,0,0.3-0.1,0.3-0.3l-0.2-1.4l-1.1,0.1L116.3,33.5z M17.9,73.3l-0.1-0.9l-1.1,0.1l0.1,0.9L17.9,73.3z
		 M27.7,72.2l0.2,1.6l1-0.1l-0.2-1.6L27.7,72.2z M104.1,33.3l-0.1-0.9l-1.1,0.1l0.1,0.9L104.1,33.3z M39.6,36.4
		c0.1-0.1,0.2-0.3,0.1-0.4c0-0.2-0.1-0.3-0.2-0.4c-0.1-0.1-0.3-0.1-0.4-0.1c-0.2,0-0.3,0.1-0.4,0.2c-0.1,0.1-0.1,0.3-0.1,0.4
		c0,0.2,0.1,0.3,0.2,0.4c0.1,0.1,0.3,0.1,0.4,0.1C39.4,36.6,39.5,36.5,39.6,36.4z M30.1,73.6l0.8-0.1c0.2,0,0.3-0.1,0.3-0.3
		l-0.2-1.4l-1.1,0.1L30.1,73.6z M28.4,69.5l-1,0.1l0.2,1.6l1-0.1L28.4,69.5z M30.8,70.7l-0.2-1.6l-1.1,0.1l0.2,1.6L30.8,70.7z
		 M59.4,53.5c0.2,0,0.3-0.1,0.2-0.3l-0.1-0.7l-1.1,0.1l0.1,0.9L59.4,53.5z M57.7,53.7l-0.1-0.9l-1.1,0.1l0.1,0.9L57.7,53.7z
		 M55.6,53.9L55.5,53l-1.1,0.1l0.1,0.9L55.6,53.9z M295.1,23.6l0.1,0.9l1.1-0.1l-0.1-0.9L295.1,23.6z M293.1,23.9l0.1,0.9l1.1-0.1
		l-0.1-0.9L293.1,23.9z M155.3,74.3h26V29.9h-26V74.3z M157.2,56.5c-0.2-0.2-0.4-0.4-0.4-0.7c0-0.3,0-0.6,0.2-0.8
		c0.2-0.2,0.5-0.4,0.8-0.4c0.3,0,0.6,0,0.8,0.2c0.2,0.2,0.4,0.4,0.4,0.7c0,0.3,0,0.6-0.2,0.8c-0.2,0.2-0.5,0.4-0.8,0.4
		C157.7,56.7,157.4,56.7,157.2,56.5z M160.4,70.8c-0.2,0.2-0.5,0.4-0.8,0.4c-0.3,0-0.6,0-0.9-0.2c-0.2-0.2-0.4-0.4-0.4-0.7
		c0-0.3,0-0.6,0.2-0.8c0.2-0.3,0.5-0.4,0.8-0.4c0.3,0,0.6,0,0.8,0.2c0.2,0.2,0.4,0.4,0.4,0.7C160.7,70.3,160.6,70.6,160.4,70.8z
		 M160.9,59.3l6.9-0.8c0.3,0,0.6-0.2,0.7-0.4c0.2-0.2,0.3-0.5,0.2-0.8l-0.7-5.9l-8,1L160,51l9.3-1.1l0.9,7.7c0.1,0.5,0,1-0.3,1.4
		c-0.3,0.4-0.7,0.6-1.2,0.6l-7.6,0.9L160.9,59.3z M170,43.6l0.5-0.1c0.1,0,0.2-0.2,0.2-0.4l0.2-1.9l1.3-0.2l-0.2,2.6
		c-0.1,0.6-0.4,0.9-0.9,1l-0.9,0.1L170,43.6z M171.9,69.6c-0.2,0.2-0.5,0.4-0.8,0.4l-4,0.5l0.3,2.2c0,0.2,0,0.3,0,0.4
		c-0.6,0-1.1,0-1.7,0c0,0,0,0,0,0c0.2-0.2,0.3-0.5,0.2-0.8l-0.7-5.4l1.3-0.2l0.3,2.6l3.1-0.4c0.5-0.1,0.7-0.3,0.6-0.8l-0.3-2.8
		l-8.7,1.1l-0.1-1.2l10-1.2l0.6,4.8C172.2,69,172.1,69.3,171.9,69.6z M180.1,72.7l-2.9,0.3c-1,0-2.2,0-3.6,0l-0.1-0.8l6.5-0.8
		C180.1,72.1,180.1,72.5,180.1,72.7z M180.1,64.5l-7,0.9l-0.1-1.2l7.1-0.9C180.1,63.7,180.1,64.1,180.1,64.5z M180.1,57.6
		C180.1,57.5,180.1,57.5,180.1,57.6l-3.1-3.3l-1.4,3.5c-0.2,0.4-0.4,0.7-0.6,0.9c-0.2,0.2-0.6,0.3-1,0.3l-2.1,0.3l-0.1-1.2l1.5-0.2
		c0.6-0.1,1-0.3,1.2-0.8l3.2-7.6l-6.3,0.8l-0.2-1.2l7.8-1l0.2,1.3l-1.5,3.7l2.6,2.7C180.1,56.3,180.1,56.9,180.1,57.6z M180.1,41
		l-2.2,1.5l0.4,0.1c0.3,0.1,0.7,0.1,1.1,0.1l0.8-0.1c0,0.3,0,0.6,0,0.9l-1.4,0.2c-0.3,0-0.6,0-0.8-0.1l-1-0.4l-0.9,0.6
		c-0.1,0.1-0.3,0.2-0.6,0.2l-2.1,0.3l-0.1-0.8l1.5-0.2c0.1,0,0.2,0,0.3-0.1l0.7-0.4l-2.2-0.8l1.9-0.2l1.3,0.4l1.9-1.2l-5.3,0.7
		l-0.1-0.8l7.1-0.9C180.1,40.3,180.1,40.7,180.1,41z M180.1,38.9c0,0.4-0.2,0.7-0.7,0.7l-6.4,0.8l-0.3-2.6l7.2-0.9L180.1,38.9z
		 M179.2,33l0.3,2.7c0.1,0.5-0.2,0.7-0.8,0.8l-6,0.7l-0.4-3.4L179.2,33z M172.5,40.3l-1.3,0.2c-0.4,0-0.7-0.1-0.8-0.5l-0.9-2.4
		l1.3-0.2l0.6,1.6c0.1,0.2,0.2,0.3,0.3,0.2l0.6-0.1L172.5,40.3z M170.3,34.1l0.6,1.6c0.1,0.2,0.2,0.3,0.3,0.2l0.6-0.1l0.1,1.1
		l-1.3,0.2c-0.4,0.1-0.7-0.1-0.8-0.5l-0.9-2.3L170.3,34.1z M164.7,39.3c0.2-0.2,0.5-0.4,0.8-0.4c0.3,0,0.6,0,0.8,0.2
		c0.2,0.2,0.4,0.4,0.4,0.7c0,0.3,0,0.6-0.2,0.8c-0.2,0.2-0.5,0.4-0.8,0.4c-0.3,0-0.6,0-0.9-0.2c-0.2-0.2-0.4-0.4-0.4-0.7
		C164.4,39.8,164.5,39.5,164.7,39.3z M156.5,40.1L156.5,40.1l1.6-4.5l1.5-0.2l-1.8,5.5l1.9,1.2c0.4,0.3,1,0.4,1.6,0.3l0.9-0.1
		l0.2,1.2l-1.6,0.2c-0.3,0-0.6,0-0.7,0c-0.2-0.1-0.4-0.2-0.8-0.4l-1.9-1.2l-0.8,2.5C156.5,43.1,156.5,41.5,156.5,40.1z M297.6,19.8
		l-0.1-0.6l-4.6,0.6l0.1,0.6L297.6,19.8z M303.8,20.9l0.2,1.6l1-0.1l-0.2-1.6L303.8,20.9z M293.2,21.7l4.3-0.5
		c0.2,0,0.3-0.1,0.3-0.3l0-0.2l-4.6,0.6L293.2,21.7z M305.9,20.7l0.2,1.6l1.1-0.1l-0.2-1.6L305.9,20.7z M310.5,32.6
		c0.1,0.1,0.3,0.1,0.4,0.1c0.2,0,0.3-0.1,0.4-0.2c0.1-0.1,0.1-0.3,0.1-0.4c0-0.2-0.1-0.3-0.2-0.4c-0.1-0.1-0.3-0.1-0.4-0.1
		c-0.2,0-0.3,0.1-0.4,0.2c-0.1,0.1-0.1,0.3-0.1,0.4C310.3,32.4,310.3,32.5,310.5,32.6z M178.7,38.8c0.2,0,0.3-0.1,0.2-0.3l-0.1-0.7
		l-1.1,0.1l0.1,0.9L178.7,38.8z M178.3,34.5l-0.1-0.6l-4.6,0.6l0.1,0.6L178.3,34.5z M177,39l-0.1-0.9l-1.1,0.1l0.1,0.9L177,39z
		 M128.7,5.4c0,0,0,29.4,0,33.3c-2-3.4-20-33.9-20-33.9H84c0,0,0,45.4,0,51.6C81.8,50.5,63.8,0,63.8,0H29.4L0,84.7h33.4
		c0,0,2.2-9.5,2.4-10.4c0.9,0,21.1,0,22,0c0.2,0.8,2.8,10.4,2.8,10.4h33.4c0,0-3.2-9-3.7-10.4c1.6,0,18.6,0,18.6,0s0-29.2,0-33
		c2,3.3,20.1,33,20.1,33h24.7V4.8h-25L128.7,5.4z M120.2,26.7l-4.7,0.6l0.1,0.9l2.2-0.3l0.7,5.6c0.1,0.5-0.2,0.8-0.7,0.9l-4.7,0.6
		l-0.8-6.4l2.2-0.3l-0.1-0.9l-4.8,0.6l-0.1-1.1l10-1.2C119.8,26,120,26.3,120.2,26.7z M116.5,20.4c0.2,0.4,0.4,0.8,0.7,1.1l-0.8,0.1
		l-0.1-1.2L116.5,20.4z M113.3,16.2l-0.2-1.5c0.5,0.9,1,1.8,1.6,2.7c0,0.1-0.1,0.2-0.2,0.3c-0.2,0.2-0.5,0.4-0.8,0.4l-4,0.5l0.3,2.2
		c0.1,0.6,0,1-0.3,1.4c-0.3,0.4-0.7,0.6-1.2,0.6l-3.1,0.4l-0.2-1.2l2.4-0.3c0.3,0,0.6-0.2,0.7-0.4c0.2-0.2,0.3-0.5,0.2-0.8L108,15
		l1.3-0.2l0.3,2.6l3.1-0.4C113.2,17,113.4,16.7,113.3,16.2z M100.4,34.5c-0.4,0-0.7-0.1-0.8-0.5l-0.9-2.4l1.3-0.2l0.6,1.6
		c0.1,0.2,0.2,0.3,0.3,0.2l0.6-0.1l0.1,1.1L100.4,34.5z M101.4,35l-0.2,2.6c-0.1,0.6-0.4,0.9-0.9,1l-0.9,0.1l-0.1-1.1l0.5-0.1
		c0.1,0,0.2-0.2,0.2-0.4l0.2-1.9L101.4,35z M101.6,27.8l6.9-0.8l0.3,2.7c0.1,0.5-0.2,0.7-0.8,0.8l-6,0.7L101.6,27.8z M109.1,30.9
		l0.2,2c0,0.4-0.2,0.7-0.7,0.7l-6.4,0.8l-0.3-2.6L109.1,30.9z M112.4,13.4l-8.1,1l-0.2-1.2l7.6-0.9C112,12.7,112.2,13,112.4,13.4z
		 M108.5,6.8c0.2,0.3,0.4,0.7,0.7,1.2l-5.6,0.7l-0.2-1.2L108.5,6.8z M101.3,17.7c0.2-0.2,0.5-0.4,0.8-0.4c0.3,0,0.6,0,0.8,0.2
		c0.2,0.2,0.4,0.4,0.4,0.7c0,0.3,0,0.6-0.2,0.8c-0.2,0.2-0.5,0.4-0.8,0.4c-0.3,0-0.6,0-0.8-0.2c-0.2-0.2-0.4-0.4-0.4-0.7
		C101.1,18.1,101.1,17.9,101.3,17.7z M99.5,28l0.6,1.6c0.1,0.2,0.2,0.3,0.3,0.2l0.6-0.1l0.1,1.1L99.9,31c-0.4,0-0.7-0.1-0.8-0.5
		l-0.9-2.3L99.5,28z M98.1,22.3c0.1,0.5,0,1-0.3,1.4c-0.3,0.4-0.7,0.6-1.2,0.6l-7.4,0.9l-1.3-10.4l1.4-0.2l1.1,9.2l5.3-0.6
		c0.3,0,0.6-0.2,0.8-0.4c0.2-0.2,0.3-0.5,0.2-0.8l-0.4-3l1.4-0.2L98.1,22.3z M95.7,34.6c-0.2,0.2-0.5,0.4-0.8,0.4
		c-0.3,0-0.6,0-0.9-0.2c-0.2-0.2-0.4-0.4-0.4-0.7c0-0.3,0-0.6,0.2-0.8c0.2-0.2,0.5-0.4,0.8-0.4c0.3,0,0.6,0,0.8,0.2
		c0.2,0.2,0.4,0.4,0.4,0.7C95.9,34.1,95.8,34.4,95.7,34.6z M89.6,6l0.2,1.3l1-0.1L90.7,6c0.4,0,0.7,0,1.1,0l0.1,1.1L92.7,7
		C92.9,7,93,6.9,93,6.7L92.9,6c0.4,0,0.8,0,1.1,0l0.1,1.1C94.2,7.6,94,7.9,93.5,8l-4.7,0.6L88.5,6C88.8,6,89.2,6,89.6,6z M87.6,6
		L88,9.5l7.1-0.9c0.2,0,0.2-0.1,0.2-0.3L95,6c0.4,0,0.8,0,1.2,0l0.3,2.8c0.1,0.5-0.1,0.8-0.5,0.9l-9.1,1.1L86.4,6
		C86.7,6,87.1,6,87.6,6z M85.2,10.1l0.4,0l0.1,0.9L85.2,11C85.2,10.7,85.2,10.4,85.2,10.1z M85.2,16C85.2,16,85.2,16,85.2,16
		c0.2,0.2,0.4,0.2,0.5,0.2c0.2,0,0.3-0.1,0.4-0.2c0.1-0.1,0.1-0.3,0.1-0.4c0-0.2-0.1-0.3-0.2-0.4c-0.1-0.1-0.3-0.1-0.4-0.1
		c-0.2,0-0.3,0.1-0.4,0.2c0-0.3,0-0.6,0-0.8c0.1,0,0.2-0.1,0.3-0.1c0.3,0,0.7,0,0.9,0.3c0.3,0.2,0.4,0.5,0.5,0.8
		c0,0.3,0,0.7-0.3,0.9c-0.2,0.3-0.5,0.4-0.8,0.5c-0.2,0-0.4,0-0.6-0.1C85.2,16.5,85.2,16.3,85.2,16z M85.2,17.1L85.2,17.1L85.2,17.1
		C85.2,17.1,85.2,17.1,85.2,17.1z M85.2,36l0.2-0.6l-0.2-0.1c0-0.5,0-1,0-1.5l0.6,0.4l1.5-4.5l1.5-0.2L87,34.9l1.9,1.2
		c0.4,0.3,1,0.4,1.6,0.3l0.9-0.1l0.2,1.2L90,37.7c-0.3,0-0.6,0-0.7,0c-0.2,0-0.4-0.2-0.8-0.4l-1.9-1.2l-1,3
		c-0.1,0.3-0.2,0.6-0.4,0.8C85.2,38.6,85.2,37.3,85.2,36z M87.4,75.1l1.9-0.2c0.1,0.2,0.2,0.5,0.3,0.7l-2.1,0.3l0.1,0.5l2.2-0.3
		c0.1,0.3,0.2,0.5,0.3,0.8l-3.5,0.4L86,73.8l2.7-0.3c0.1,0.2,0.2,0.5,0.3,0.8l-1.7,0.2L87.4,75.1z M89.7,64.8
		c-0.2,0.2-0.5,0.4-0.8,0.4c-0.3,0-0.6,0-0.9-0.2c-0.2-0.2-0.4-0.4-0.4-0.7c0-0.3,0-0.6,0.2-0.8c0.2-0.2,0.5-0.4,0.8-0.4
		c0.3,0,0.6,0,0.8,0.2c0.2,0.2,0.4,0.4,0.4,0.7C89.9,64.3,89.9,64.5,89.7,64.8z M85.2,53.9l1.1-0.1c0.3,0,0.6-0.2,0.7-0.4
		c0.2-0.2,0.3-0.5,0.2-0.8l-0.7-5.9l-1.3,0.2c0-0.4,0-0.8,0-1.2l2.5-0.3l0.9,7.7c0.1,0.5,0,1-0.3,1.4c-0.3,0.4-0.7,0.6-1.2,0.6
		l-1.9,0.2C85.2,54.7,85.2,54.3,85.2,53.9z M84.2,64.5l0.4,3.6c0.1,0.5,0,1-0.3,1.4c-0.3,0.4-0.7,0.6-1.2,0.6L75.7,71l-1.3-10.4
		l1.4-0.2l1.1,9.2l5.3-0.7c0.3,0,0.6-0.2,0.8-0.4c0.2-0.2,0.3-0.5,0.2-0.8l-0.4-3L84.2,64.5z M82.3,55.5l-2.8,0.3l-0.2-1.2l2.5-0.3
		C82.1,54.7,82.2,55.1,82.3,55.5z M79.1,46.3c0.1,0.4,0.3,0.8,0.4,1.2l-0.9,0.1l-0.1-1.2L79.1,46.3z M77.2,51.6
		C77,51.8,76.8,52,76.5,52c-0.3,0-0.6,0-0.8-0.2c-0.2-0.2-0.4-0.4-0.4-0.7c0-0.3,0-0.6,0.2-0.8c0.2-0.3,0.5-0.4,0.8-0.4
		c0.3,0,0.6,0,0.8,0.2c0.2,0.2,0.4,0.4,0.4,0.7C77.5,51.1,77.4,51.3,77.2,51.6z M77.3,41.2l-7.3,0.9l-0.1-1.2l7-0.9
		C77,40.4,77.1,40.8,77.3,41.2z M54.1,56.7l1.9-0.2l1.3,0.4l1.9-1.1l-5.3,0.7l-0.1-0.8l7.2-0.9l0.1,0.9l-2.5,1.7l0.3,0.1
		c0.3,0.1,0.7,0.1,1.1,0.1l1.4-0.2l0.1,0.9l-2.2,0.3c-0.3,0-0.6,0-0.8-0.1l-1-0.4l-0.9,0.6c-0.1,0.1-0.3,0.2-0.6,0.2L53.8,59
		l-0.1-0.8l1.5-0.2c0.1,0,0.2-0.1,0.3-0.1l0.7-0.4L54.1,56.7z M53.4,52.9l-0.1-0.5l7.2-0.9l0.2,2c0,0.4-0.2,0.7-0.7,0.7L53.7,55
		l-0.1-0.6h0.2L53.4,52.9z M41.6,53.3c0.3-1.4,5.1-23.3,5.3-24.2c0,0,0,0,0.1,0c0.5,3.4,1.1,6.9,1.9,10.3c0,0,3,12.6,3.4,14
		C51,53.3,42.8,53.3,41.6,53.3z M47.1,55.3c-0.2,0.2-0.5,0.4-0.8,0.4c-0.3,0-0.6,0-0.8-0.2c-0.2-0.2-0.4-0.4-0.4-0.7
		c0-0.1,0-0.2,0-0.3h2.2c0,0,0,0,0,0C47.4,54.8,47.3,55,47.1,55.3z M38.7,37.6l-1.8,7.8c-0.1,0.4-0.3,0.7-0.6,0.9
		c-0.2,0.2-0.6,0.3-1.1,0.3L31.6,47l-0.1-1.2l3.3-0.4c0.5-0.1,0.9-0.4,1-0.9l1.5-7l-7.7,1l-0.1-1.2l8.4-1c0-0.4,0-0.7,0.3-0.9
		c0.2-0.3,0.5-0.4,0.8-0.5c0.3,0,0.7,0,0.9,0.3c0.3,0.2,0.4,0.5,0.5,0.8c0,0.3,0,0.7-0.3,0.9c-0.2,0.3-0.5,0.4-0.8,0.5
		c-0.2,0-0.5,0-0.7-0.1L38.7,37.6z M29.4,68.2l2.2-0.3l0.7,5.6c0.1,0.5-0.2,0.8-0.7,0.9l-4.7,0.6l-0.8-6.4l2.2-0.3l-0.1-0.9L23.4,68
		l-0.1-1.1L34,65.6l0.1,1.1l-4.9,0.6L29.4,68.2z M16.4,76.1l1.9-0.2l1.3,0.4l1.9-1.1l-5.3,0.7L16,74.9l7.2-0.9l0.1,0.9l-2.5,1.7
		l0.3,0.1c0.3,0.1,0.7,0.1,1.1,0.1l1.4-0.2l0.1,0.9l-2.2,0.3c-0.3,0-0.6,0-0.8-0.1l-1-0.4l-0.9,0.6c-0.1,0.1-0.3,0.2-0.6,0.2
		l-2.1,0.3L16,77.5l1.5-0.2c0.1,0,0.2-0.1,0.3-0.1l0.7-0.4L16.4,76.1z M22.1,67l0.3,2.7c0.1,0.5-0.2,0.7-0.8,0.8l-6,0.7l-0.4-3.4
		L22.1,67z M20.7,53.4l9.5-1.2l0.1,1.2l-9.5,1.2L20.7,53.4z M22.8,70.9l0.2,2c0.1,0.4-0.2,0.7-0.7,0.7l-6.4,0.8l-0.3-2.6L22.8,70.9z
		 M21.4,62.8l-0.1-1.2l10.4-1.3l0.1,1.2L21.4,62.8z M36.6,28.2l0.1,0.9l-2.5,1.7l0.3,0.1c0.3,0.1,0.7,0.1,1.1,0.1l1.4-0.2l0.1,0.9
		l-2.2,0.3c-0.3,0-0.6,0-0.8-0.1l-1-0.4l-0.9,0.6c-0.1,0.1-0.3,0.2-0.6,0.2l-2.1,0.3l-0.1-0.8l1.5-0.2c0.1,0,0.2,0,0.3-0.1L32,31
		l-2.2-0.8l1.9-0.2l1.3,0.4l1.9-1.2l-5.3,0.7l-0.1-0.8L36.6,28.2z M29.3,28.6L29,26l7.2-0.9l0.2,2c0.1,0.4-0.2,0.7-0.7,0.7
		L29.3,28.6z M42.7,21.5l0.1,0.9l2.2-0.3l0.7,5.6c0.1,0.5-0.2,0.8-0.7,0.9l-4.7,0.6l-0.8-6.4l2.2-0.3l-0.1-0.9l-4.8,0.6l-0.1-1.1
		l10.8-1.3l0.1,1.1L42.7,21.5z M48,27.8h-1.2L46,21.9l1.2-0.1L48,27.8z M38.5,31.5l-1-8.5l1.2-0.1l0.9,7.4l5.9-0.7l-0.3,1.2
		L38.5,31.5z M42.7,35l0.6,4.6l-0.9,4.1l-1-8.5L42.7,35z M51.2,39.1l0.4,3.6c0.1,0.5,0,1-0.3,1.4c0,0,0,0,0,0l-1.2-4.9L51.2,39.1z
		 M51.1,23.8c0.2-0.2,0.5-0.4,0.8-0.4c0.3,0,0.6,0,0.8,0.2c0.2,0.2,0.4,0.4,0.4,0.7c0,0.3,0,0.5-0.2,0.8c-0.2,0.2-0.5,0.4-0.8,0.4
		c-0.3,0-0.6,0-0.8-0.2c-0.2-0.2-0.4-0.4-0.4-0.7C50.9,24.3,50.9,24,51.1,23.8z M53.1,54.5l0.1,0.5l-1.3,0.2c-0.4,0-0.7-0.1-0.8-0.5
		L51,54.5H53.1z M53,48.5l6.9-0.8l0.3,2.7c0.1,0.5-0.2,0.7-0.8,0.8l-6,0.7L53,48.5z M63.5,41.2c0.1,0.6,0,1-0.3,1.4
		C63,43,62.5,43.2,62,43.2l-3.1,0.4l-0.2-1.2l2.4-0.3c0.3,0,0.6-0.2,0.7-0.4c0.2-0.2,0.3-0.5,0.2-0.8l-0.7-5.4l1.3-0.2l0.3,2.6
		l3.1-0.4c0.5-0.1,0.7-0.3,0.7-0.8l-0.3-2.8l-8.7,1.1l-0.2-1.2l10-1.2l0.6,4.8c0,0.4,0,0.7-0.2,0.9c-0.2,0.2-0.5,0.4-0.8,0.4l-4,0.5
		L63.5,41.2z M64,27.8c-0.3,0.4-0.7,0.6-1.2,0.6l-7.6,0.9L55,28.1l6.9-0.8c0.3,0,0.6-0.2,0.7-0.4c0.2-0.2,0.3-0.5,0.2-0.8l-0.7-5.9
		l-8,1l-0.1-1.2l9.3-1.1l0.9,7.7C64.4,27,64.3,27.4,64,27.8z M56.6,39.4c-0.2,0.2-0.5,0.4-0.8,0.4c-0.3,0-0.6,0-0.9-0.2
		c-0.2-0.2-0.4-0.4-0.4-0.7c0-0.3,0-0.6,0.2-0.8c0.2-0.2,0.5-0.4,0.8-0.4c0.3,0,0.6,0,0.8,0.2c0.2,0.2,0.4,0.4,0.4,0.7
		C56.9,38.9,56.8,39.1,56.6,39.4z M61.2,48.7L61,47.5l10.8-1.3l0.1,1.1L67,47.9l0.1,0.9l2.2-0.3l0.7,5.6c0.1,0.5-0.2,0.8-0.7,0.9
		l-4.7,0.6l-0.8-6.4l2.2-0.3l-0.1-0.9L61.2,48.7z M63,49.2l0.9,7.4l7.1-0.9c0.1,0,0.2-0.1,0.2-0.3l-0.9-7.2l1.2-0.1l1,7.7
		c0.1,0.5-0.1,0.8-0.5,0.9l-9.1,1.1l-1-8.5L63,49.2z M74.4,33.3L69.4,34l-0.1-1.2l4.8-0.6C74.2,32.5,74.3,32.9,74.4,33.3z
		 M70.9,23.5l-1.3,3c-0.2,0.4-0.4,0.7-0.6,0.9c-0.2,0.2-0.6,0.3-1,0.3L65.9,28l-0.1-1.2l1.5-0.2c0.6-0.1,1-0.3,1.2-0.8l1.8-4.2
		C70.5,22.2,70.7,22.9,70.9,23.5z M69.2,18.5L65.4,19l-0.1-1.2l3.5-0.4C68.9,17.7,69,18.1,69.2,18.5z M57.5,5.9c0.4,0,0.6-0.1,0.8,0
		c0.2,0,0.5,0.2,0.8,0.4l2.4,1.5l1.5-4.5l0.7-0.1c0.1,0.3,0.2,0.7,0.4,1.1l-1.4,4.3l1.9,1.2c0.4,0.3,1,0.4,1.6,0.3h0
		c0.1,0.4,0.3,0.8,0.4,1.2l-1,0.1c-0.3,0-0.6,0-0.7,0c-0.2-0.1-0.4-0.2-0.8-0.4l-1.9-1.2l-1,3c-0.3,0.8-0.7,1.2-1.4,1.3l-2.7,0.3
		l-0.1-1.2l1.7-0.2c0.6-0.1,1.1-0.5,1.3-1.2L61,8.9l-2.4-1.5c-0.4-0.3-0.8-0.3-1.3-0.3l-1,0.1L56.1,6L57.5,5.9z M55.9,14.4
		l-10.3,1.3l-0.2-1.2l10.4-1.3L55.9,14.4z M54.3,5.1l0.2,1.2L45,7.5l-0.1-1.2L54.3,5.1z M44,1.2l-0.4,0l0,0
		C43.7,1.2,43.8,1.2,44,1.2z M43.9,10.8c0,0.4,0,0.7-0.2,0.9c-0.2,0.2-0.5,0.4-0.8,0.4l-4,0.5l0.3,2.2c0.1,0.6,0,1-0.3,1.4
		c-0.3,0.4-0.7,0.6-1.3,0.6l-3.1,0.4l-0.2-1.2l2.4-0.3c0.3,0,0.6-0.2,0.7-0.4c0.2-0.2,0.3-0.5,0.2-0.8L37.1,9l1.3-0.2l0.3,2.6
		l3.1-0.4c0.5-0.1,0.7-0.3,0.7-0.8l-0.3-2.8l-8.7,1.1l-0.2-1.2l10-1.2L43.9,10.8z M34.3,1.2c2,0,4.5,0,7.2,0
		c-0.3,0.3-0.6,0.4-1.1,0.5l-7.6,0.9l-0.2-1.2L34.3,1.2z M30.4,11.6c0.2-0.2,0.5-0.4,0.8-0.4c0.3,0,0.6,0,0.8,0.2
		c0.2,0.2,0.4,0.4,0.4,0.7c0,0.3,0,0.5-0.2,0.8c-0.2,0.2-0.5,0.4-0.8,0.4c-0.3,0-0.6,0-0.9-0.2c-0.2-0.2-0.4-0.4-0.4-0.7
		C30.2,12.1,30.2,11.9,30.4,11.6z M35.6,21.1l0.3,2.7c0.1,0.5-0.2,0.7-0.8,0.8l-6,0.7L28.7,22L35.6,21.1z M28.8,28.5l-1.3,0.2
		c-0.4,0-0.7-0.1-0.8-0.5l-0.9-2.4l1.3-0.2l0.6,1.6c0.1,0.2,0.2,0.3,0.3,0.2l0.6-0.1L28.8,28.5z M28.5,29.2l-0.2,2.6
		c-0.1,0.6-0.4,0.9-0.9,1l-0.9,0.1l-0.1-1.1l0.5-0.1c0.1,0,0.2-0.2,0.2-0.4l0.2-1.9L28.5,29.2z M27.6,24l0.6-0.1l0.1,1.1l-1.3,0.2
		c-0.4,0-0.7-0.1-0.8-0.5l-0.9-2.3l1.3-0.2l0.6,1.6C27.4,24,27.5,24,27.6,24z M24.8,17.1L24.8,17.1c0.3,0,0.6-0.2,0.8-0.4
		c0.2-0.2,0.3-0.5,0.2-0.8l-0.1-1.2c0.2-0.7,0.5-1.3,0.7-2l0.4-0.1l0.4,3.6c0.1,0.5,0,1-0.3,1.4c-0.3,0.4-0.7,0.6-1.2,0.6l-1.3,0.2
		C24.5,18,24.6,17.5,24.8,17.1z M21.2,27.3c0.2-0.1,0.4-0.2,0.6-0.2c0.3,0,0.6,0,0.8,0.2c0.2,0.2,0.4,0.4,0.4,0.7
		c0,0.3,0,0.6-0.2,0.8c-0.2,0.2-0.5,0.4-0.8,0.4c-0.3,0-0.6,0-0.9-0.2c-0.2-0.2-0.3-0.4-0.4-0.6C21,28,21.1,27.7,21.2,27.3z
		 M26.6,37.2l0.2,1.3l-1.5,3.7l3.4,3.5c0.3,0.3,0.7,0.4,1.2,0.3l0.1,1.2l-0.5,0.1c-0.4,0-0.7,0-0.9,0c-0.3-0.1-0.6-0.2-0.9-0.5
		l-3-3.2L23.2,47c-0.2,0.4-0.4,0.7-0.6,0.9c-0.2,0.2-0.6,0.3-1,0.3l-2.1,0.3l-0.1-1.2l1.5-0.2c0.6-0.1,1-0.3,1.2-0.8l3.2-7.6
		l-6.3,0.8l-0.2-1.2L26.6,37.2z M14.1,47.9l1.4-0.2c0.3,0,0.6-0.2,0.7-0.4c0.2-0.2,0.3-0.5,0.2-0.8l-0.5-3.9c0.3-1,0.7-1.9,1-2.9
		l0.9,7.2c0.1,0.5,0,1-0.3,1.4c-0.3,0.3-0.7,0.6-1.2,0.6l-2.7,0.3C13.8,48.8,13.9,48.3,14.1,47.9z M13.6,61.5l-0.7-5.4l1.3-0.2
		l0.3,2.6l3.1-0.4c0.5-0.1,0.7-0.3,0.7-0.8L18,54.5l-6.5,0.8c0.1-0.4,0.3-0.8,0.4-1.3l7.2-0.9l0.6,4.8c0,0.4,0,0.7-0.2,0.9
		c-0.2,0.2-0.5,0.4-0.8,0.4l-4,0.5l0.3,2.2c0.1,0.5,0,1-0.3,1.4c-0.3,0.4-0.7,0.6-1.3,0.6l-3.1,0.4l-0.2-1.2l2.4-0.3
		c0.3,0,0.6-0.2,0.7-0.4C13.6,62.1,13.6,61.8,13.6,61.5z M3.7,77.8L3.7,77.8c0.1-0.4,0.3-0.8,0.4-1.3c0,0,0.1,0,0.1,0l0.9-0.1
		l0.2,1.2L3.7,77.8z M9.4,74.6C9.2,74.9,8.9,75,8.6,75c-0.3,0-0.6,0-0.9-0.2c-0.2-0.2-0.4-0.4-0.4-0.7c0-0.3,0-0.6,0.2-0.8
		c0.2-0.2,0.5-0.4,0.8-0.4c0.3,0,0.6,0,0.8,0.2c0.2,0.2,0.4,0.4,0.4,0.7C9.7,74.1,9.6,74.4,9.4,74.6z M9.7,83.5l1.4-0.2l0,0.2
		C10.6,83.5,10.1,83.5,9.7,83.5z M13.3,68.1l0.6,1.6c0.1,0.2,0.2,0.3,0.3,0.2l0.6-0.1l0.1,1.1l-1.3,0.2c-0.4,0.1-0.7-0.1-0.8-0.5
		l-0.9-2.3L13.3,68.1z M13.7,71.4l0.6,1.6c0.1,0.2,0.2,0.3,0.3,0.2l0.6-0.1l0.1,1.1l-1.3,0.2c-0.4,0-0.7-0.1-0.8-0.5l-0.9-2.4
		L13.7,71.4z M12.9,77.6l0.5-0.1c0.1,0,0.2-0.2,0.2-0.4l0.2-1.9l1.3-0.2l-0.2,2.6c-0.1,0.6-0.4,0.9-0.9,1l-0.9,0.1L12.9,77.6z
		 M24.6,82.9c-0.2,0.3-0.5,0.4-0.9,0.5c-0.2,0-0.5,0-0.7-0.1l0,0.2c-2.9,0-6.1,0-9.2,0l0-0.2l8.4-1c0-0.4,0-0.7,0.3-0.9
		c0.2-0.3,0.5-0.4,0.8-0.5c0.3,0,0.7,0,0.9,0.3c0.3,0.2,0.4,0.5,0.5,0.8C24.9,82.3,24.8,82.6,24.6,82.9z M26.2,83.5l-0.3-2.3
		l1.4-0.2l0.3,2.4C27.1,83.5,26.6,83.5,26.2,83.5z M34.2,76.2l-9.1,1.1l-1-8.5l1.2-0.1l0.9,7.4l7.1-0.9c0.1,0,0.2-0.1,0.2-0.3
		l-0.9-7.2l1.2-0.1l0.8,6.8C34.5,74.9,34.3,75.5,34.2,76.2z M39.5,71c-0.2,0.2-0.5,0.4-0.8,0.4c-0.3,0-0.6,0-0.8-0.2
		c-0.2-0.2-0.4-0.4-0.4-0.7c0-0.3,0-0.6,0.2-0.8c0.2-0.2,0.5-0.4,0.8-0.4c0.3,0,0.6,0,0.8,0.2c0.2,0.2,0.4,0.4,0.4,0.7
		C39.7,70.4,39.7,70.7,39.5,71z M38.1,56.8l-1,3c-0.3,0.8-0.7,1.2-1.4,1.3L33,61.5l-0.1-1.2l1.8-0.2c0.6-0.1,1.1-0.5,1.3-1.2
		l0.9-2.7l-2.4-1.5c-0.4-0.3-0.8-0.4-1.3-0.3l-1,0.1L32,53.2l1.4-0.2c0.4,0,0.6-0.1,0.8,0c0.2,0,0.5,0.1,0.8,0.3l2.4,1.5l1.5-4.5
		l1.5-0.2l-1.8,5.5l1.9,1.2c0.4,0.3,1,0.4,1.6,0.3l0.9-0.1l0.1,1.2l-1.6,0.2c-0.3,0-0.6,0-0.7,0c-0.2-0.1-0.4-0.2-0.8-0.4L38.1,56.8
		z M50.8,73.1h-2.2c0.3-0.1,0.5-0.2,0.6-0.4c0.2-0.2,0.3-0.5,0.2-0.8l-0.7-5.9l-8,1l-0.1-1.2l9.3-1.1l0.9,7.7
		C50.9,72.6,50.9,72.8,50.8,73.1z M50.8,59.3l-0.1-1.1l0.5-0.1c0.1,0,0.2-0.2,0.2-0.4l0.2-1.9l1.3-0.2l-0.2,2.6
		c-0.1,0.6-0.4,0.9-0.9,1L50.8,59.3z M57.7,68.9l-1.4,3.4c-0.1,0.3-0.3,0.5-0.5,0.7h-3.4l-0.1-0.5l1.5-0.2c0.6-0.1,1-0.3,1.2-0.8
		l3.2-7.6l-6.3,0.8l-0.2-1.2l7.8-1l0.2,1.3l-1.5,3.7l3.4,3.5c0.3,0.3,0.7,0.4,1.2,0.3l0.1,1.2l-0.5,0.1c-0.4,0-0.7,0-0.8,0
		c-0.3-0.1-0.6-0.2-0.9-0.5L57.7,68.9z M60.4,79.2c-0.1-0.4-0.2-0.8-0.3-1.2l3.1-0.4l0.1,1.2L60.4,79.2z M64.5,71.2l3.3-0.4
		c0.6-0.1,0.9-0.4,1-0.9l1.5-7l-7.7,0.9l-0.1-1.2l8.4-1c0-0.4,0-0.7,0.3-0.9c0.2-0.3,0.5-0.4,0.8-0.5c0.3,0,0.7,0,0.9,0.3
		c0.3,0.2,0.4,0.5,0.5,0.8c0,0.3-0.1,0.7-0.3,0.9c-0.2,0.3-0.5,0.4-0.8,0.5c-0.2,0-0.5,0-0.7-0.1l0.1,0.4L70,70.7
		c-0.1,0.4-0.3,0.7-0.6,0.9c-0.2,0.2-0.6,0.3-1.1,0.3l-3.7,0.5L64.5,71.2z M73.1,83.5c0,0-0.1,0-0.1-0.1l-1.9-1.2l-0.4,1.3
		c-0.5,0-1,0-1.5,0l0.7-2l-2.4-1.5c-0.4-0.2-0.8-0.3-1.3-0.3l-1,0.1L65,78.6l1.4-0.2c0.4,0,0.6-0.1,0.8,0c0.2,0,0.5,0.2,0.8,0.3
		l2.4,1.5l1.5-4.5l1.5-0.2L71.5,81l1.9,1.3c0.4,0.3,1,0.4,1.6,0.3l0.9-0.1l0.1,1.1C75,83.5,74,83.5,73.1,83.5z M80.2,80.7
		c-0.2,0.2-0.5,0.4-0.8,0.4c-0.3,0-0.6,0-0.9-0.2c-0.2-0.2-0.4-0.4-0.4-0.7c0-0.3,0-0.6,0.2-0.8c0.2-0.2,0.5-0.4,0.8-0.4
		c0.3,0,0.6,0,0.8,0.2c0.2,0.2,0.4,0.4,0.4,0.7C80.4,80.2,80.3,80.4,80.2,80.7z M84,74.1l0.6,1.6c0.1,0.2,0.2,0.3,0.3,0.2l0.6-0.1
		l0.1,1.1l-1.3,0.2c-0.4,0-0.7-0.1-0.8-0.5l-0.9-2.3L84,74.1z M85.7,83.5c-0.4,0-0.9,0-1.4,0c0.1-0.1,0.1-0.2,0.1-0.3l0.2-1.9
		l1.3-0.2L85.7,83.5z M84.9,80.5c-0.4,0-0.7-0.1-0.8-0.5l-0.9-2.4l1.3-0.2l0.6,1.6c0.1,0.2,0.2,0.3,0.3,0.2l0.6-0.1l0.1,1.1
		L84.9,80.5z M91.9,82.4l-0.3,0.2l0.3,0.1c0,0,0.1,0,0.1,0c0.1,0.3,0.2,0.6,0.3,0.8c-0.2,0-0.6,0-1.3,0l-0.5-0.2l-0.2,0.2
		c-0.7,0-1.6,0-2.7,0l0.6-0.1c0.1,0,0.2-0.1,0.3-0.1l0.7-0.4l-2.2-0.8l1.9-0.2l1.3,0.4l1.3-0.8C91.7,81.8,91.8,82.1,91.9,82.4z
		 M91.5,81.2l-4.7,0.6l-0.1-0.8l4.5-0.6C91.3,80.6,91.4,80.9,91.5,81.2z M90.4,78.2l-1,0.1l0.1,0.9l1.1-0.1l0-0.4
		c0.1,0.4,0.3,0.8,0.4,1.2l-4.4,0.5l-0.3-2.6l3.8-0.5C90.2,77.6,90.3,77.9,90.4,78.2z M90.2,54.4l-0.1-1.2l1.5-0.2
		c0.6-0.1,1-0.3,1.2-0.8l3.2-7.6l-6.3,0.8l-0.2-1.2l7.8-1l0.2,1.3L96,48.2l3.4,3.5c0.3,0.3,0.7,0.4,1.2,0.3l0.1,1.2l-0.5,0.1
		c-0.4,0-0.7,0.1-0.9,0c-0.3-0.1-0.6-0.2-0.9-0.5l-3-3.2L94,53c-0.2,0.4-0.4,0.7-0.6,0.9c-0.2,0.2-0.6,0.3-1,0.3L90.2,54.4z
		 M91.8,67.8l2.4-0.3c0.3,0,0.6-0.2,0.7-0.4c0.2-0.2,0.3-0.5,0.2-0.8l-0.7-5.4l1.3-0.2l0.3,2.6l3.1-0.4c0.5-0.1,0.7-0.3,0.7-0.8
		l-0.3-2.8l-8.7,1.1l-0.2-1.2l10-1.2l0.6,4.8c0,0.4,0,0.7-0.2,0.9c-0.2,0.2-0.5,0.4-0.8,0.4l-4,0.5l0.3,2.2c0.1,0.6,0,1-0.3,1.4
		c-0.3,0.4-0.7,0.6-1.3,0.6L92,69L91.8,67.8z M92.2,73.1l0.7-0.1l0,0.1C92.7,73.1,92.4,73.1,92.2,73.1z M102,73.1
		c-2.5,0-5.4,0-7.9,0l0-0.2l10.8-1.3l0.1,1.1L102,73.1z M107.7,66.9l-4.7,0.6l-0.1-1.2l4.8-0.6C107.7,66.1,107.7,66.5,107.7,66.9z
		 M107.7,58.7l-5.3,0.6l-0.1-1.2l5.4-0.7C107.7,57.9,107.7,58.3,107.7,58.7z M107.7,51.4c-0.1,0.4-0.3,0.7-0.6,0.8
		c-0.2,0.1-0.6,0.3-1.1,0.3l-3.7,0.4l-0.1-1.2l3.3-0.4c0.5-0.1,0.9-0.4,1-0.9l1.1-5C107.7,47.3,107.7,49.3,107.7,51.4z M107.7,43.5
		l-7.3,0.9l-0.1-1.2l7.5-0.9C107.7,42.7,107.7,43.1,107.7,43.5z M108.1,37.6c-0.3-0.4-0.4-0.7-0.4-0.7s0,0.2,0,0.7
		c-0.2,0-0.4,0-0.6-0.1l-1-0.4l-0.9,0.6c-0.1,0.1-0.3,0.2-0.6,0.2l-2.1,0.3l-0.1-0.8l1.5-0.2c0.1,0,0.3-0.1,0.3-0.1l0.7-0.4
		l-2.2-0.8l1.9-0.2l1.3,0.4l1.9-1.2l-5.3,0.7l-0.1-0.8l7.2-0.9l0.1,0.9l-2.5,1.7l0.3,0.1c0.3,0.1,0.7,0.1,1.1,0.1l1.4-0.2l0.1,0.9
		L108.1,37.6z M111.1,42.6c-0.4-0.6-0.8-1.2-1.1-1.8c0.3,0,0.5,0.1,0.7,0.3c0.3,0.2,0.4,0.5,0.5,0.8
		C111.2,42.2,111.2,42.4,111.1,42.6z M110.3,28.7l1.2-0.1l0.9,7.4l7.1-0.9c0.2,0,0.2-0.1,0.2-0.3l-0.9-7.2l1.2-0.1l1,7.7
		c0.1,0.5-0.1,0.8-0.5,0.9l-9.1,1.1L110.3,28.7z M112.7,45.2l-0.5-4l1.4-0.2l0.9,7C113.8,47.1,113.2,46.1,112.7,45.2z M120.7,58.4
		c-0.3-0.5-0.6-1-0.9-1.5l0.6-1.9l1.5-0.2L120.7,58.4z M122.1,50.1c-0.3,0.4-0.7,0.6-1.2,0.6l-4.5,0.6c-0.2-0.4-0.5-0.8-0.7-1.2
		l4.3-0.5c0.3,0,0.6-0.2,0.8-0.4c0.2-0.2,0.3-0.5,0.2-0.8l-0.4-3l1.4-0.2l0.4,3.6C122.5,49.3,122.4,49.7,122.1,50.1z M123.6,63.1
		c-0.2-0.4-0.5-0.8-0.8-1.2c0.2,0,0.5,0,0.8,0l0.9-0.1l0.1,1.2L123.6,63.1z M125.8,45.6c-0.2-0.2-0.4-0.4-0.4-0.7
		c0-0.3,0-0.6,0.2-0.8c0.2-0.2,0.5-0.4,0.8-0.4c0.3,0,0.6,0,0.8,0.2c0.2,0.2,0.4,0.4,0.4,0.7c0,0.3,0,0.5-0.2,0.8
		c-0.2,0.2-0.5,0.4-0.7,0.4C126.4,45.9,126.1,45.8,125.8,45.6z M129.4,72.7c-0.2-0.3-0.5-0.8-0.9-1.4l0.5-1.2l-1.1,0.1
		c-0.2-0.4-0.5-0.8-0.7-1.2l3.2-0.4l0.2,1.3L129.4,72.7z M131.3,53.6l1.3-0.2l0.6,1.6c0.1,0.2,0.2,0.3,0.3,0.2l0.6-0.1l0.1,1.1
		l-1.3,0.2c-0.4,0.1-0.7-0.1-0.8-0.5L131.3,53.6z M133,56.8l0.6,1.6c0.1,0.2,0.2,0.3,0.3,0.2l0.6-0.1l0.1,1.1l-1.3,0.2
		c-0.4,0.1-0.7-0.1-0.8-0.5l-0.9-2.4L133,56.8z M140.5,62c0.3,0.1,0.7,0.1,1.1,0.1l1.4-0.2l0.1,0.9l-2.2,0.3c-0.3,0-0.6,0-0.8-0.1
		l-1-0.4l-0.9,0.6c-0.1,0.1-0.3,0.2-0.6,0.2l-2.1,0.3l-0.1-0.8l1.5-0.2c0.1,0,0.2-0.1,0.3-0.1l0.7-0.4l-2.2-0.8l1.9-0.2l1.3,0.4
		l1.9-1.1l-5.3,0.7l-0.1-0.8l7.2-0.9l0.1,0.9l-2.5,1.7L140.5,62z M135.2,59.7l-0.3-2.6l7.2-0.9l0.2,2c0.1,0.4-0.2,0.7-0.7,0.7
		L135.2,59.7z M140.8,48.1l-0.1-1.2l10.4-1.3l0.1,1.2L140.8,48.1z M140.2,40l-0.1-1.2l9.5-1.2l0.2,1.2L140.2,40z M141.5,52.3
		l0.3,2.7c0.1,0.5-0.2,0.7-0.8,0.8l-6,0.7l-0.4-3.4L141.5,52.3z M132.3,62.9l0.5-0.1c0.1,0,0.2-0.2,0.2-0.4l0.2-1.9l1.3-0.2
		l-0.2,2.6c-0.1,0.6-0.4,0.9-0.9,1l-0.9,0.1L132.3,62.9z M143.9,68.2c-0.2,0.3-0.5,0.4-0.9,0.5c-0.2,0-0.5,0-0.7-0.1l0.1,0.4
		l-0.9,4.1c-0.5,0-0.9,0-1.4,0l0.9-4.2l-7.7,0.9l-0.1-1.2l8.4-1c0-0.4,0-0.7,0.3-0.9c0.2-0.3,0.5-0.4,0.8-0.5c0.3,0,0.7,0,0.9,0.3
		c0.3,0.2,0.4,0.5,0.5,0.8C144.3,67.6,144.2,68,143.9,68.2z M146,73.1l-0.8-6.5l1.4-0.2l0.8,6.7C146.9,73.1,146.5,73.1,146,73.1z
		 M152.4,61.6l-8,1l-1-8.5l1.2-0.1l0.9,7.4l7-0.9C152.4,60.9,152.4,61.3,152.4,61.6z M152.4,57.3l-0.5-4.3l0.5-0.1
		C152.4,54.5,152.4,55.9,152.4,57.3z M152.4,52.2l-3.8,0.5l0.1,0.9l2.2-0.3l0.7,5.6c0.1,0.5-0.2,0.8-0.7,0.9l-4.7,0.6l-0.8-6.4
		l2.2-0.3l-0.1-0.9l-4.8,0.6l-0.1-1.1l9.8-1.2C152.4,51.4,152.4,51.8,152.4,52.2z M152.4,46.8l-0.1,0l-0.1-1.2l0.3,0
		C152.4,46,152.4,46.4,152.4,46.8z M152.4,39.6l-1,0.1l-0.1-1.2l1.1-0.1C152.4,38.8,152.4,39.2,152.4,39.6z M152.4,32.1l-1.5,0.2
		l-0.1-1.2l1.7-0.2C152.4,31.3,152.4,31.7,152.4,32.1z M152.4,23.3l-3.5,0.4l-0.1-1.2l3.7-0.5C152.4,22.5,152.4,22.9,152.4,23.3z
		 M152.4,16.9l-0.8,0.6c-0.1,0.1-0.3,0.2-0.6,0.2l-2.1,0.3l-0.1-0.8l1.5-0.2c0.1,0,0.2,0,0.3-0.1l0.7-0.4l-2.2-0.8l1.9-0.2l1.3,0.4
		l0.1-0.1C152.4,16.1,152.4,16.5,152.4,16.9z M152.4,14.8l-3.6,0.4l-0.1-0.8l3.7-0.5C152.4,14.2,152.4,14.5,152.4,14.8z M152.4,11.7
		l-1,0.1l0.1,0.9l0.8-0.1c0,0.3,0,0.6,0,0.9l-3.8,0.5l-0.3-2.6l4.1-0.5C152.4,11.1,152.4,11.4,152.4,11.7z M152.4,6.8
		c0,0.2,0,0.5,0,0.8L149.3,8l0.1,0.6l3.1-0.4c0,0.2,0,0.5,0,0.8l-3,0.4l0.1,0.5l2.9-0.4c0,0.3,0,0.5,0,0.8l-4,0.5L148,7.3L152.4,6.8
		z M148.1,13.9l-1.3,0.2c-0.4,0.1-0.7-0.1-0.8-0.5l-0.9-2.4l1.3-0.2l0.6,1.6c0.1,0.2,0.2,0.3,0.3,0.2l0.6-0.1L148.1,13.9z
		 M147.9,14.5l-0.2,2.6c-0.1,0.6-0.4,0.9-0.9,1l-0.9,0.1l-0.1-1.1l0.5-0.1c0.1,0,0.2-0.2,0.2-0.4l0.2-1.9L147.9,14.5z M146,7.6
		l0.6,1.6c0.1,0.2,0.2,0.3,0.3,0.2l0.6-0.1l0.1,1.1l-1.3,0.2c-0.4,0.1-0.7-0.1-0.8-0.5l-0.9-2.3L146,7.6z M140.4,12.9
		c0.2-0.2,0.5-0.4,0.8-0.4c0.3,0,0.6,0,0.8,0.2c0.2,0.2,0.4,0.4,0.4,0.7c0,0.3,0,0.6-0.2,0.8c-0.2,0.2-0.5,0.4-0.8,0.4
		c-0.3,0-0.6,0-0.9-0.2c-0.2-0.2-0.4-0.4-0.4-0.7C140.1,13.3,140.2,13.1,140.4,12.9z M145.9,22.6l0.2,1.3l-1.5,3.7l3.4,3.5
		c0.3,0.3,0.7,0.4,1.2,0.3l0.1,1.2l-0.5,0.1c-0.4,0-0.7,0.1-0.9,0c-0.3-0.1-0.6-0.2-0.9-0.5l-3-3.2l-1.4,3.4
		c-0.2,0.4-0.4,0.7-0.6,0.9c-0.2,0.2-0.6,0.3-1,0.3l-2.1,0.3l-0.1-1.2l1.5-0.2c0.6-0.1,1-0.3,1.2-0.8l3.2-7.6l-6.3,0.8l-0.1-1.2
		L145.9,22.6z M129.9,18.8c0.5-0.2,0.8-0.5,1-1.2l0.9-2.7l-2-1.3c0-0.5,0-1,0-1.5c0,0,0,0,0,0l2.4,1.5l1.5-4.5l1.5-0.2l-1.8,5.5
		l1.9,1.2c0.4,0.3,1,0.4,1.6,0.3l0.9-0.1l0.1,1.2l-1.6,0.2c-0.3,0-0.6,0-0.7,0c-0.2-0.1-0.4-0.2-0.8-0.4l-1.9-1.2l-1,3
		c-0.3,0.8-0.7,1.2-1.4,1.3l-0.8,0.1C129.9,19.7,129.9,19.3,129.9,18.8z M129.9,33.6l4.8-0.6c0.3,0,0.6-0.2,0.7-0.4
		c0.2-0.2,0.3-0.5,0.2-0.8l-0.7-5.9l-5.1,0.6c0-0.4,0-0.8,0-1.2l6.3-0.8l0.9,7.7c0.1,0.5,0,1-0.3,1.4c-0.3,0.4-0.7,0.6-1.2,0.6
		l-5.7,0.7C129.9,34.5,129.9,34.1,129.9,33.6z M132.9,46.9l-0.7-5.4l1.3-0.2l0.3,2.6l3.1-0.4c0.5-0.1,0.7-0.3,0.7-0.8l-0.3-2.8
		l-7.4,0.9c0-0.4,0-0.8,0-1.2l8.6-1.1l0.6,4.8c0,0.4,0,0.7-0.2,0.9c-0.2,0.2-0.5,0.4-0.8,0.4l-4,0.5l0.3,2.2c0.1,0.5,0,1-0.3,1.4
		c-0.3,0.4-0.7,0.6-1.3,0.6l-3.1,0.4l-0.2-1.2l2.4-0.3c0.3,0,0.6-0.2,0.7-0.4C132.9,47.5,133,47.2,132.9,46.9z M128.7,60
		c-0.2,0.2-0.5,0.4-0.8,0.4c-0.3,0-0.6,0-0.9-0.2c-0.2-0.2-0.4-0.4-0.4-0.7c0-0.3,0-0.6,0.2-0.8c0.2-0.2,0.5-0.4,0.8-0.4
		c0.3,0,0.6,0,0.8,0.2c0.2,0.2,0.4,0.4,0.4,0.7C129,59.5,128.9,59.7,128.7,60z M173.8,36.3l4.3-0.5c0.2,0,0.3-0.1,0.3-0.3l0-0.2
		l-4.6,0.6L173.8,36.3z M174.9,39.3l-0.1-0.9l-1.1,0.1l0.1,0.9L174.9,39.3z M287.5,74.7c1.4-1.1,2.6-2.4,3.5-3.8
		c0.7-0.9,1.3-2,1.8-3.1c0.5-1.2,0.9-2.2,1-3.2c0.2-0.9,0-1.4-0.5-1.4c-0.7,0-2,1.2-4,3.6c-1.1,1.4-2.1,2.9-2.9,4.3
		c-0.8,1.4-1.3,2.7-1.5,3.7c-0.1,0.4-0.1,0.9,0,1.5C286,75.8,286.9,75.3,287.5,74.7z M220.7,60.6l-1.1,0.1l0.2,1.6l1.1-0.1
		L220.7,60.6z M191.2,47.2c0.1,0.1,0.3,0.1,0.4,0.1c0.2,0,0.3-0.1,0.4-0.2c0.1-0.1,0.1-0.3,0.1-0.4c0-0.2-0.1-0.3-0.2-0.4
		c-0.1-0.1-0.3-0.1-0.4-0.1c-0.1,0-0.3,0.1-0.4,0.2c-0.1,0.1-0.1,0.3-0.1,0.4C190.9,47,191,47.1,191.2,47.2z M219.9,63.3l0.2,1.6
		l0.8-0.1c0.2,0,0.3-0.1,0.3-0.3l-0.2-1.4L219.9,63.3z M266.3,41.8l1-0.1l-0.2-1.6l-1,0.1L266.3,41.8z M355.8,52
		c0.1-0.3,0.1-0.5,0.1-0.8c0-1.2-0.6-2.3-1.6-3c-0.9-0.6-2-0.9-3.4-0.9c-1.9,0-3.9,0.5-6.1,1.5c-1.3,0.6-2.4,1.3-3.2,2.1
		c-1.4,1.4-3.1,3.5-5.1,6.6c-1.4,0.4-2.8,1-4.1,1.9c-0.4,0.3-0.7,0.5-1,0.8c-0.8-0.9-1.9-1.7-3.2-2.2c-1.5-0.6-3.1-1-4.9-1
		c-0.8,0-1.6,0-2.5,0.1v-2.7c0,0-20.5,0-21.7,0c0-0.9,0-4.6,0-5.5c1.1,0,19.1,0,19.1,0V30c0,0-18,0-19.1,0c0-0.9,0-4.4,0-5.3
		c1.1,0,20.9,0,20.9,0V4.8H273v42.1c-0.5,0.1-1,0.3-1.6,0.5l-7-42.6h-26.2c0,0-8.6,30-9.7,33.8c-1-3.8-8.9-33.8-8.9-33.8h-26.5
		l-11.2,69.5h25.3l0.1-0.6c0-0.3,2.3-24.1,3.2-33.6c1.5,5,10.5,34.2,10.5,34.2h15.4c0,0,9.6-29.9,11.2-34.7
		c0.4,4.4,2.6,28.6,3.1,34.4c0,0,0,0.1-0.1,0.1c-2.1,4.9-3.7,9.9-4.6,14.8l-0.1,0.4l-0.1,0.5c-0.2,1.1-0.2,1.8,0,2.4
		c0.2,0.7,0.6,1.3,1.2,1.9l0.1,0.1l0.1,0.1c1.2,1,3,1.4,5.6,1.4c2.4,0,4.3-0.5,5.7-1.5c1.1-0.7,2.2-2.3,3.3-5
		c0.9-2.1,1.8-4.8,2.8-8.2c1.5-0.1,2.8-0.3,3.8-0.5c0.7-0.2,1.4-0.4,2-0.7c0.3,1.7,1.1,3.2,2.6,4.4c1.9,1.6,4.6,2.4,8,2.4
		c1.3,0,2.8-0.2,4.5-0.6c1.6-0.3,3.2-0.8,4.9-1.4c1.6-0.6,3.4-1.4,5.2-2.2c0.8-0.4,1.6-0.8,2.3-1.2c-0.8,0.9-1.3,1.9-1.4,2.9
		c-0.1,0.4-0.1,0.7-0.1,1c0,1.9,1,3.6,2.9,4.6c1.7,1,4,1.5,7,1.5c2.8,0,5.5-0.3,7.9-1c2.4-0.6,5-1.7,7.6-3.2
		c2.4-1.4,4.4-2.7,5.7-4.1c0.1-0.1,0.1-0.1,0.2-0.2c0.2,0.3,0.5,0.6,0.8,0.9c1.7,1.6,4.1,2.5,7.2,2.5c1.2,0,2.5-0.2,3.9-0.5
		c1.4-0.3,2.7-0.8,3.9-1.4c1.2-0.6,2.3-1.2,3.3-1.9c1.3-1,2.2-1.8,2.4-3c0,0,0.1-0.7,0-1.2c-0.1-0.4-0.5-0.9-0.5-0.9
		c-0.8-1-2.1-1-2.5-1h-0.3c-1.6,0-2-0.3-2-0.4c0,0,0,0,0,0c0,0,0-0.1,0-0.1c0-0.1,0-0.3,0.1-0.5c0.1-0.4,0.2-0.9,0.4-1.4l0-0.1
		c0,0,1.3-3.9,1.4-4.1c0.1-0.1,0.4-0.7,0.7-1.3c1.2-0.1,2.2-0.3,3-0.5c1.5-0.5,2.7-1.2,3.7-2.3c1.1-1.1,1.8-2.4,2.1-3.8
		c0-0.2,0.1-0.5,0.1-0.7c0-1.3-0.7-2.4-1.9-3c-0.2-0.1-0.5-0.2-0.8-0.3c0.5-0.7,1-1.5,1.6-2.3C355.4,53.5,355.7,52.7,355.8,52z
		 M306.2,56.1c0.4,0,0.7-0.2,0.9-0.5c0.5,0,1.1,0,1.6,0l-0.1,0.3c-0.3,0.8-0.7,1.2-1.4,1.3l-2.7,0.3l-0.1-1.2L306.2,56.1z
		 M303.3,56.4l0.1,1.2l-1,0.1c-0.7-0.4-1.4-0.7-2.2-0.9L303.3,56.4z M311.5,47.7c-0.5,0-0.9,0-1.4,0l0.5-1.4l1.5-0.2L311.5,47.7z
		 M313.5,31.2c0.3,0,0.6,0,0.9,0l1.1,9.1l1.5-0.2c0,0.4,0,0.8,0,1.3l-2.7,0.3l-1.3-10.4L313.5,31.2z M309.8,31.3
		c0-0.1,0.1-0.1,0.1-0.2c0.6,0,1.1,0,1.7,0c0.2,0.2,0.4,0.5,0.4,0.8c0,0.3-0.1,0.7-0.3,0.9c-0.2,0.3-0.5,0.4-0.9,0.5
		c-0.2,0-0.5,0-0.7-0.1l0.1,0.4l-1.8,7.8c-0.1,0.4-0.3,0.7-0.6,0.9c-0.2,0.1-0.6,0.3-1.1,0.3l-3.7,0.5l-0.2-1.2l3.3-0.4
		c0.5-0.1,0.9-0.4,1-0.9l1.5-7l-7.7,1l-0.1-1.2l8.4-1C309.5,31.9,309.6,31.6,309.8,31.3z M300.3,41.8c0.3,0.3,0.7,0.4,1.2,0.3
		l0.1,1.2l-0.5,0.1c-0.4,0-0.7,0.1-0.9,0c-0.3-0.1-0.6-0.2-0.9-0.5l-3-3.2l-1.4,3.5c-0.2,0.4-0.4,0.7-0.6,0.8
		c-0.2,0.2-0.6,0.3-1,0.3l-2.1,0.3l-0.1-1.2l1.5-0.2c0.6-0.1,1-0.3,1.2-0.8l3.2-7.6l-6.3,0.8l-0.2-1.2l7.8-1l0.2,1.3l-1.5,3.7
		L300.3,41.8z M298,48.8V50l-5.5,0.7l-0.2-1.2L298,48.8z M286.7,58c0,0.3,0,0.5,0,0.7c-0.3,0.1-0.5,0.2-0.8,0.3
		c-0.8,0.4-1.6,0.8-2.3,1.2l-1.5,0.2l-0.2-1.2l2.4-0.3c0.3,0,0.6-0.2,0.7-0.4c0.2-0.2,0.3-0.5,0.2-0.8l-0.7-5.4L286,52l0.3,2.6
		l3.1-0.4c0.5-0.1,0.7-0.3,0.7-0.8l-0.3-2.8l-8.7,1.1l-0.1-0.9c0-0.1,0-0.2,0-0.3l10-1.2l0.6,4.8c0,0.4,0,0.7-0.2,0.9
		c-0.2,0.2-0.5,0.4-0.8,0.4l-4,0.5L286.7,58z M288.1,42.5l-0.7-5.9l-8,1l-0.2-1.2l9.3-1.1l0.9,7.7c0.1,0.5,0,1-0.3,1.4
		c-0.3,0.4-0.7,0.6-1.2,0.6l-7.6,0.9l-0.2-1.2l6.9-0.8c0.3,0,0.6-0.2,0.7-0.4C288.1,43.1,288.2,42.9,288.1,42.5z M280,55.5
		c0,0.2-0.1,0.4-0.2,0.7C279.8,55.9,279.9,55.7,280,55.5z M284,24.7c0.2-0.2,0.5-0.4,0.8-0.4c0.3,0,0.6,0,0.8,0.2
		c0.2,0.2,0.4,0.4,0.4,0.7c0,0.3,0,0.5-0.2,0.8c-0.2,0.2-0.5,0.4-0.8,0.4c-0.3,0-0.6,0-0.9-0.2c-0.2-0.2-0.4-0.4-0.4-0.7
		C283.7,25.1,283.8,24.9,284,24.7z M289.3,28.9l0.5-0.1c0.1,0,0.2-0.2,0.2-0.4l0.2-1.9l1.3-0.2l-0.2,2.6c-0.1,0.6-0.4,0.9-0.9,1
		l-0.9,0.1L289.3,28.9z M297.6,28c0.1,0,0.3,0.1,0.4,0.1v1c-0.3,0-0.5,0-0.8-0.1l-1-0.4l-0.9,0.6c-0.1,0.1-0.3,0.2-0.6,0.2l-2.1,0.3
		l-0.1-0.8l1.5-0.2c0.1,0,0.2,0,0.3-0.1l0.7-0.4l-2.2-0.8l1.9-0.2l1.3,0.4l1.9-1.2l-5.3,0.7l-0.1-0.8l5.6-0.7v1.9l-0.8,0.5L297.6,28
		z M298.2,23.4l0-0.2l-1.1,0.1l0.1,0.9l0.7-0.1V25l-5.7,0.7l-0.3-2.6l7.2-0.9l0.1,1.2C298.8,23.4,298.5,23.4,298.2,23.4z
		 M300.8,23.4l-0.4-3.4l1.2-0.1l0.4,3.5C301.6,23.4,301.2,23.4,300.8,23.4z M307.4,23.4l0-0.3l-1.1,0.1l0,0.2c-0.4,0-0.7,0-1.1,0
		l0-0.1l-0.4,0.1c-0.6,0-1.2,0-1.8,0l-0.4-3.5l2.2-0.3l-0.1-0.9l-4.8,0.6l-0.1-1.1l10.8-1.3l0.1,1.1l-4.9,0.6l0.1,0.9l2.2-0.3
		l0.5,4.1C308.1,23.4,307.7,23.4,307.4,23.4z M309.5,23.4L309,19l1.2-0.1l0.6,4.6C310.3,23.4,309.9,23.4,309.5,23.4z M315.9,22.3
		c-0.2,0.2-0.5,0.4-0.8,0.4c-0.3,0-0.6,0-0.9-0.2c-0.2-0.2-0.4-0.4-0.4-0.7c0-0.3,0-0.6,0.2-0.8c0.2-0.2,0.5-0.4,0.8-0.4
		c0.3,0,0.6,0,0.8,0.2c0.2,0.2,0.4,0.4,0.4,0.7C316.1,21.8,316,22,315.9,22.3z M318.9,18l-1.8,0.2L317,17l1.9-0.2
		C318.9,17.2,318.9,17.6,318.9,18z M318.8,10.3l0.1,1.1c0,0,0,0.1,0,0.1l-10.3,1.3l-0.1-1.2L318.8,10.3z M299.8,12.8
		c0.3,0,0.6-0.2,0.7-0.4c0.2-0.2,0.3-0.5,0.2-0.8l-0.7-5.4l1.1-0.1c0.1,0,0.1,0,0.2,0l0.3,2.5l3.1-0.4c0.5-0.1,0.7-0.3,0.6-0.8
		L305.3,6c0.5,0,0.9,0,1.4,0l0.2,1.9c0,0.4,0,0.7-0.2,0.9c-0.2,0.2-0.5,0.4-0.8,0.4l-4,0.5l0.3,2.2c0.1,0.6,0,1-0.3,1.4
		c-0.3,0.4-0.7,0.6-1.2,0.6l-3.1,0.4l-0.2-1.2L299.8,12.8z M293.5,8.8c0.2-0.2,0.5-0.4,0.8-0.4c0.3,0,0.6,0,0.8,0.2
		c0.2,0.2,0.4,0.4,0.4,0.7c0,0.3,0,0.6-0.2,0.8c-0.2,0.2-0.5,0.4-0.8,0.4c-0.3,0-0.6,0-0.9-0.2c-0.2-0.2-0.4-0.4-0.4-0.7
		C293.2,9.3,293.3,9,293.5,8.8z M298.5,18.3l0.3,2.7c0.1,0.5-0.2,0.7-0.8,0.8l-6,0.7l-0.4-3.4L298.5,18.3z M291.8,25.7l-1.3,0.2
		c-0.4,0-0.7-0.1-0.8-0.5l-0.9-2.4l1.3-0.2l0.6,1.6c0.1,0.2,0.2,0.3,0.3,0.2l0.6-0.1L291.8,25.7z M290.6,21.2l0.6-0.1l0.1,1.1
		l-1.3,0.2c-0.4,0.1-0.7-0.1-0.8-0.5l-0.9-2.3l1.3-0.2l0.6,1.6C290.3,21.1,290.4,21.2,290.6,21.2z M281.4,6l1.1,8.9l5.3-0.7
		c0.3,0,0.6-0.2,0.8-0.4c0.2-0.2,0.3-0.5,0.2-0.8l-0.4-3.1l1.4-0.2l0.4,3.6c0.1,0.5,0,1-0.3,1.4c-0.3,0.4-0.7,0.6-1.2,0.6l-7.4,0.9
		L280.1,6C280.5,6,281,6,281.4,6z M274.2,15.6c0.1-0.1,0.2-0.3,0.2-0.4l1.5-7l-1.7,0.2c0-0.5,0-0.9,0-1.2l2.3-0.3
		c0-0.3,0-0.6,0.2-0.9c0.6,0,1.3,0,2.1,0c0.1,0.2,0.2,0.4,0.2,0.6c0,0.3,0,0.7-0.3,0.9c-0.2,0.3-0.5,0.4-0.9,0.5
		c-0.2,0-0.5,0-0.7-0.1l0.1,0.4l-1.8,7.8c-0.1,0.4-0.3,0.7-0.6,0.9c-0.2,0.1-0.4,0.2-0.8,0.3C274.2,16.6,274.2,16.1,274.2,15.6z
		 M274.2,30.2c0.1-0.2,0.3-0.4,0.4-0.7l0.9-2.7l-1.3-0.8c0-0.5,0-1,0-1.5l1.7,1.1l1.5-4.5l1.5-0.2l-1.8,5.5l1.9,1.3
		c0.4,0.3,1,0.4,1.6,0.3l0.9-0.1l0.1,1.2l-1.6,0.2c-0.3,0-0.6,0-0.7,0c-0.2-0.1-0.4-0.2-0.8-0.4l-1.9-1.2l-1,3
		c-0.3,0.8-0.7,1.2-1.4,1.3l-0.1,0C274.2,31.3,274.2,30.7,274.2,30.2z M278.1,41.7c-0.2,0.2-0.5,0.4-0.8,0.4c-0.3,0-0.6,0-0.9-0.2
		c-0.2-0.2-0.4-0.4-0.4-0.7c0-0.3,0-0.6,0.2-0.8c0.2-0.2,0.5-0.4,0.8-0.4c0.3,0,0.6,0,0.8,0.2c0.2,0.2,0.4,0.4,0.4,0.7
		C278.4,41.1,278.3,41.4,278.1,41.7z M270.2,47.2l-6.5,0.8l-1-8.5l1.2-0.1l0.9,7.4l5.2-0.6C270.1,46.7,270.2,47.1,270.2,47.2z
		 M262.6,52.4c-0.1-0.1-0.3-0.1-0.4-0.1c-0.2,0-0.3,0.1-0.4,0.2c-0.1,0.1-0.1,0.3-0.1,0.4c0,0.2,0.1,0.3,0.2,0.4
		c0.1,0.1,0.3,0.1,0.4,0.1c0.1,0,0.2-0.1,0.3-0.1c-0.2,0.2-0.5,0.5-0.7,0.8c-0.1,0-0.1,0-0.2-0.1l0.1,0.2c-0.6,0.7-1.2,1.4-1.8,2.2
		l0.5-2.2l-7.7,1l-0.1-1.2l8.4-1c0-0.4,0-0.7,0.3-0.9c0.2-0.3,0.5-0.4,0.8-0.5c0.3,0,0.7,0,0.9,0.3c0.2,0.2,0.3,0.3,0.4,0.6
		c-0.2,0.2-0.4,0.5-0.7,0.7c0.1-0.1,0.1-0.2,0.1-0.3C262.8,52.6,262.8,52.4,262.6,52.4z M255.9,62.4c-0.3,0.4-0.5,0.9-0.8,1.3
		l-0.3,0l-0.1-1.2L255.9,62.4z M251.7,64c-0.3-0.1-0.6-0.2-0.8-0.5c-0.1-0.7-0.1-1.4-0.2-2.2l1,1.1c0.3,0.3,0.7,0.4,1.2,0.3L253,64
		l-0.5,0.1C252.1,64.1,251.8,64.1,251.7,64z M252.1,69.2c-0.2,0.4-0.4,0.9-0.6,1.3l0,0c0-0.3-0.1-0.7-0.1-1.2L252.1,69.2z
		 M259.8,47.4c0.3,0.1,0.7,0.1,1.1,0.1l1.4-0.2l0.1,0.9l-2.2,0.3c-0.3,0-0.6,0-0.8-0.1l-1-0.4l-0.9,0.6c-0.1,0.1-0.3,0.2-0.6,0.2
		l-2.1,0.3l-0.1-0.8l1.5-0.2c0.1,0,0.2-0.1,0.3-0.1l0.7-0.4l-2.2-0.8l1.9-0.2l1.3,0.4l1.9-1.1l-5.3,0.7l-0.1-0.8l7.2-0.9l0.1,0.9
		l-2.5,1.7L259.8,47.4z M261,44.3l-6.4,0.8l-0.3-2.6l7.2-0.9l0.2,2C261.8,44,261.5,44.2,261,44.3z M260.4,41.2l-6,0.7l-0.4-3.4
		l6.9-0.8l0.3,2.7C261.2,40.9,260.9,41.1,260.4,41.2z M254,45l-1.3,0.2c-0.4,0-0.7-0.1-0.8-0.5l-0.9-2.4l1.3-0.2l0.6,1.6
		c0.1,0.2,0.2,0.3,0.3,0.2l0.6-0.1L254,45z M253.8,45.7l-0.2,2.6c-0.1,0.6-0.4,0.9-0.9,1l-0.9,0.1l-0.1-1.1l0.5-0.1
		c0.1,0,0.2-0.2,0.2-0.4l0.2-1.9L253.8,45.7z M252.3,41.8c-0.4,0-0.7-0.1-0.8-0.5l-0.9-2.3l1.3-0.2l0.6,1.6c0.1,0.2,0.2,0.3,0.3,0.2
		l0.6-0.1l0.1,1.1L252.3,41.8z M268.7,37.9l-0.7,0.1l0.1,0.9l0.8-0.1c0.1,0.4,0.1,0.7,0.2,1.1l-0.8,0.1l0.2,1.6l0.9-0.1
		c0.1,0.4,0.1,0.7,0.2,1l-0.9,0.1l0.2,1.6l0.8-0.1c0.1,0,0.1,0,0.2-0.1c0.1,0.4,0.1,0.8,0.2,1.1l-4.3,0.5l-0.8-6.4l2.2-0.3l-0.1-0.9
		l-4.8,0.6l-0.1-1.1l6.5-0.8C268.5,37.2,268.6,37.5,268.7,37.9z M267.8,32.5l-7.7,0.9l-0.1-1.2l7.6-0.9
		C267.6,31.7,267.7,32.1,267.8,32.5z M266.4,24.5l-7,0.9l-0.1-1.2l6.9-0.8C266.3,23.7,266.4,24.1,266.4,24.5z M263.8,8.1
		c0.2,0.9,0.4,2.2,0.6,3.6l-0.5,1.2l0.9,0.9c0.1,0.7,0.3,1.5,0.4,2.3l-1.8-1.9l-1.4,3.4c-0.2,0.4-0.4,0.7-0.6,0.9
		c-0.2,0.2-0.6,0.3-1,0.3l-2.1,0.3l-0.1-1.2l1.5-0.2c0.6-0.1,1-0.3,1.2-0.8l3.2-7.6l-6.3,0.8l-0.2-1.2L263.8,8.1z M239.1,6
		c0.2,0,2.2,0,4.9,0l-5.1,0.6C239,6.3,239.1,6.1,239.1,6z M237.6,11.1l2-0.2l0.1,1.1l-2.5,0.3C237.4,11.9,237.5,11.5,237.6,11.1z
		 M235.6,18.3l0.1,0.5l0.8-0.1c0.2,0,0.3-0.1,0.2-0.3l-0.2-1.4l-0.6,0.1c0.1-0.4,0.2-0.7,0.3-1.1l0.2,0l-0.1-0.4
		c0.2-0.8,0.5-1.6,0.7-2.3l0.2,0l0.7,5.6c0.1,0.5-0.2,0.8-0.7,0.9l-2.1,0.3C235.3,19.5,235.4,18.9,235.6,18.3z M234.8,20.9l4-0.5
		c0.1,0,0.2-0.1,0.2-0.3l-0.9-7.2l1.2-0.1l1,7.7c0.1,0.5-0.1,0.8-0.5,0.9l-5.3,0.6C234.6,21.7,234.7,21.3,234.8,20.9z M233,27.4
		l1,8.2l5.3-0.7c0.3,0,0.6-0.2,0.8-0.4c0.2-0.2,0.2-0.5,0.2-0.8l-0.4-3l1.4-0.2l0.4,3.6c0.1,0.5,0,1-0.3,1.4
		c-0.3,0.4-0.7,0.6-1.2,0.6l-7.4,0.9l-0.8-6.3C232.3,29.6,232.7,28.5,233,27.4z M232.7,51.6l-10.4,1.3l-0.1-1.2l10.3-1.3L232.7,51.6
		z M228.5,43.2c0,0,0.1-0.2,0.2-0.6l2.5-0.3l0.1,1.2l-9.5,1.2l-0.2-1.2l6.7-0.8C228.4,43,228.5,43.2,228.5,43.2z M225.9,35.8
		l0.3-1.3c0.2,0.9,0.5,1.8,0.7,2.6c-0.1,0.2-0.2,0.4-0.4,0.5c-0.2,0.1-0.6,0.3-1.1,0.3l-3.7,0.4l-0.2-1.2l3.3-0.4
		C225.4,36.7,225.8,36.4,225.9,35.8z M224.8,29.2l-5.1,0.6l-0.1-1.2l4.9-0.6C224.6,28.4,224.7,28.8,224.8,29.2z M218.7,24l-0.1-1.1
		l0.5-0.1c0.1,0,0.2-0.2,0.2-0.4l0.2-1.9l1.3-0.2l-0.2,2.6c-0.1,0.6-0.4,0.9-0.9,1L218.7,24z M223.3,23.5l-1.6,0.2l-0.1-0.8l1.5-0.2
		C223.2,23,223.2,23.2,223.3,23.5z M222.8,21.7l-0.9-0.3l0.8-0.1C222.7,21.4,222.8,21.6,222.8,21.7z M222.6,20.9l-0.9,0.1l-0.1-0.8
		l0.8-0.1C222.5,20.3,222.5,20.6,222.6,20.9z M222.3,19.6l-0.8,0.1l-0.3-2.6l0.4-0.1C221.8,17.9,222,18.7,222.3,19.6z M221.5,16.5
		l-0.2,0l-0.1-1.2C221.3,15.7,221.4,16.1,221.5,16.5z M221,19.7l-1.3,0.2c-0.4,0-0.7-0.1-0.8-0.5l-0.9-2.4l1.3-0.2l0.6,1.6
		c0.1,0.2,0.2,0.3,0.3,0.2l0.6-0.1L221,19.7z M218.9,13.4l0.6,1.6c0.1,0.2,0.2,0.3,0.3,0.2l0.6-0.1l0.1,1.1l-1.3,0.2
		c-0.4,0-0.7-0.1-0.8-0.5l-0.9-2.3L218.9,13.4z M209.3,6l0.4,3.1l5.3-0.7c0.3,0,0.6-0.2,0.8-0.4c0.2-0.2,0.3-0.5,0.2-0.8L215.8,6
		c0.5,0,1,0,1.4,0l0.2,1.6c0.1,0.5,0,1-0.3,1.4c-0.3,0.4-0.7,0.6-1.2,0.6l-7.4,0.9L207.9,6C208.4,6,208.9,6,209.3,6z M215,20
		c-0.2,0.2-0.5,0.4-0.8,0.4c-0.3,0-0.6,0-0.8-0.2c-0.2-0.2-0.4-0.4-0.4-0.7c0-0.3,0-0.6,0.2-0.8c0.2-0.2,0.5-0.4,0.8-0.4
		c0.3,0,0.6,0,0.8,0.2c0.2,0.2,0.4,0.4,0.4,0.7C215.2,19.4,215.2,19.7,215,20z M200.6,10.3c0.5-0.1,0.9-0.4,1-0.9l0.7-3.4
		c0.4,0,0.9,0,1.4,0l-1,4.3c-0.1,0.4-0.3,0.7-0.6,0.9c-0.2,0.1-0.6,0.3-1.1,0.3l-3.7,0.5l-0.1-1.2L200.6,10.3z M193.5,9.7l0.8,0.9
		c0.3,0.3,0.7,0.4,1.2,0.3l0.1,1.2l-0.5,0.1c-0.4,0-0.7,0-0.9,0c-0.3-0.1-0.6-0.2-0.9-0.5l-0.2-0.2C193.4,10.8,193.5,10.3,193.5,9.7
		z M192.3,17.6l5.8-0.7l0.1,1.2l-6.2,0.8C192.1,18.5,192.2,18,192.3,17.6z M190.9,26l8.6-1.1l0.1,1.2l-8.9,1.1
		C190.8,26.9,190.8,26.4,190.9,26z M195.1,45.7l1.1,9.2l5.3-0.7c0.3,0,0.6-0.2,0.8-0.4c0.2-0.2,0.3-0.5,0.2-0.8l-0.4-3l1.4-0.2
		l0.4,3.6c0.1,0.5,0,1-0.3,1.4c-0.3,0.4-0.7,0.6-1.2,0.6l-7.4,0.9l-1.3-10.4L195.1,45.7z M194.7,35.6c0.2-0.2,0.5-0.4,0.8-0.4
		c0.3,0,0.6,0,0.8,0.2c0.2,0.2,0.4,0.4,0.4,0.7c0,0.3,0,0.5-0.2,0.8c-0.2,0.2-0.5,0.4-0.8,0.4c-0.3,0-0.6,0-0.9-0.2
		c-0.2-0.2-0.4-0.4-0.4-0.7C194.5,36.1,194.6,35.8,194.7,35.6z M198.8,41.2l-0.2-1.2l6.9-0.8c0.3,0,0.6-0.2,0.7-0.4
		c0.2-0.2,0.3-0.5,0.2-0.8l-0.7-5.9l-8,1l-0.1-1.2l9.3-1.1l0.9,7.7c0.1,0.5,0,1-0.3,1.4c-0.3,0.4-0.7,0.6-1.2,0.6L198.8,41.2z
		 M190,31.7l1.1-0.1l0.1,1.1l-1.5,0.2C189.9,32.5,189.9,32.1,190,31.7z M189.1,37.3l0.3,2.3c0.1,0.5-0.2,0.8-0.7,0.9l-0.1,0
		C188.7,39.4,188.9,38.3,189.1,37.3z M188.4,41.4l1.9-0.2c0.1,0,0.2-0.1,0.2-0.3l-0.9-7.1c0,0,0,0,0,0l1.2-0.1l1,7.7
		c0.1,0.5-0.1,0.8-0.5,0.9l-3,0.4C188.3,42.1,188.4,41.7,188.4,41.4z M186,56.2l1.1-0.1c0.6-0.1,0.9-0.4,1-0.9l1.5-7l-2.4,0.3
		c0.1-0.4,0.1-0.8,0.2-1.2l2.8-0.3c0-0.4,0-0.7,0.3-0.9c0.2-0.3,0.5-0.4,0.8-0.5c0.4,0,0.7,0,0.9,0.3c0.3,0.2,0.4,0.5,0.5,0.8
		c0,0.3,0,0.7-0.3,0.9c-0.2,0.3-0.5,0.4-0.9,0.5c-0.2,0-0.5,0-0.7-0.1l0.1,0.4l-1.8,7.8c-0.1,0.4-0.3,0.7-0.6,0.9
		c-0.2,0.2-0.6,0.3-1.1,0.3l-1.8,0.2C185.9,57.1,185.9,56.7,186,56.2z M183.4,72.3c0.1-0.3,0.1-0.7,0.2-1.2l0.4,0l0.1,1.2
		L183.4,72.3z M193.8,69.2c-0.3,0-0.6,0-0.7,0c-0.2-0.1-0.4-0.2-0.8-0.4l-1.9-1.2l-1,3c-0.3,0.8-0.7,1.2-1.4,1.3l-2.7,0.3l-0.2-1.2
		l1.8-0.2c0.6-0.1,1.1-0.5,1.3-1.2l0.9-2.7l-2.4-1.5c-0.4-0.2-0.8-0.3-1.3-0.3l-0.9,0.1c0.1-0.4,0.1-0.8,0.2-1.2l0.9-0.1
		c0.4,0,0.6-0.1,0.8,0c0.2,0,0.5,0.2,0.8,0.3l2.4,1.5l1.5-4.5l1.5-0.2l-1.8,5.5l1.9,1.2c0.4,0.3,1,0.4,1.6,0.3l0.9-0.1l0.1,1.2
		L193.8,69.2z M199.5,66c-0.2,0.2-0.5,0.4-0.8,0.4c-0.3,0-0.6,0-0.9-0.2c-0.2-0.2-0.4-0.4-0.4-0.7c0-0.3,0-0.6,0.2-0.8
		c0.2-0.2,0.5-0.4,0.8-0.4c0.3,0,0.6,0,0.8,0.2c0.2,0.2,0.4,0.4,0.4,0.7C199.7,65.5,199.7,65.8,199.5,66z M203.3,59.4L204,61
		c0.1,0.2,0.2,0.3,0.3,0.2l0.6-0.1l0.1,1.1l-1.3,0.2c-0.4,0-0.7-0.1-0.8-0.5l-0.9-2.3L203.3,59.4z M205,69c-0.1,0.6-0.4,0.9-0.9,1
		l-0.9,0.1L203,69l0.5-0.1c0.1,0,0.2-0.2,0.2-0.4l0.2-1.9l1.3-0.2L205,69z M204.2,65.9c-0.4,0-0.7-0.1-0.8-0.5l-0.9-2.4l1.3-0.2
		l0.6,1.6c0.1,0.2,0.2,0.3,0.3,0.2l0.6-0.1l0.1,1.1L204.2,65.9z M206.4,69.8l-0.2,0l-0.1-0.8l0.3,0
		C206.4,69.2,206.4,69.5,206.4,69.8z M206.6,67.5l-0.1,0L206.6,67.5C206.6,67.5,206.6,67.5,206.6,67.5z M206.6,67l-0.4,0.1l-0.1-0.8
		l0.6-0.1C206.7,66.5,206.6,66.8,206.6,67z M206.9,63.9l-0.1,0l0.1,0.6c0,0.4-0.1,0.8-0.1,1.2l-0.7,0.1l-0.3-2.6L207,63
		C207,63.3,206.9,63.6,206.9,63.9z M207.3,59.8l-0.7,0.1l0.1,0.6l0.6-0.1c0,0.3-0.1,0.5-0.1,0.8l-0.4,0.1l0.1,0.5l0.3,0
		c0,0.3-0.1,0.5-0.1,0.8l-1.3,0.2l-0.4-3.4l2-0.3C207.4,59.2,207.3,59.5,207.3,59.8z M208.2,50.5c-0.3,0-0.6,0-0.8-0.2
		c-0.2-0.2-0.4-0.4-0.4-0.7c0-0.3,0-0.6,0.2-0.8c0.2-0.3,0.5-0.4,0.8-0.4c0.1,0,0.3,0,0.4,0C208.3,49.1,208.3,49.8,208.2,50.5z
		 M207.8,22.7l-1.9-1.2l-1,3c-0.3,0.8-0.7,1.2-1.4,1.3l-2.7,0.3l-0.1-1.2l1.7-0.2c0.6-0.1,1.1-0.5,1.3-1.2l0.9-2.7l-2.4-1.5
		c-0.4-0.2-0.8-0.3-1.3-0.3l-1,0.1l-0.1-1.2l1.4-0.2c0.4,0,0.6-0.1,0.8,0c0.2,0,0.5,0.2,0.8,0.4l2.4,1.5l1.5-4.5l1.5-0.2l-1.8,5.5
		l1.9,1.2c0.4,0.3,1,0.4,1.6,0.3l0.9-0.1l0.1,1.2l-1.6,0.2c-0.3,0-0.6,0-0.7,0C208.4,23,208.2,22.9,207.8,22.7z M212.7,39.2
		c-0.2,0.2-0.6,0.3-1,0.3l-0.2,0c-0.1-0.4-0.3-0.8-0.4-1.2c0.5-0.1,0.8-0.3,1-0.7l3.2-7.6l-6.3,0.8l-0.2-1.2l7.8-1l0.2,1.3l-1.5,3.7
		l3.4,3.5c0.3,0.3,0.7,0.4,1.2,0.3l0.2,1.2l-0.5,0.1c-0.4,0-0.7,0.1-0.8,0c-0.3-0.1-0.6-0.2-0.9-0.5l-3-3.2l-1.4,3.4
		C213.1,38.7,212.9,39,212.7,39.2z M215.7,53.2c-0.6-1.8-1.1-3.6-1.6-5.3l-0.2-1.7l1.3-0.2l0.3,2.6l3.1-0.4c0.5-0.1,0.7-0.3,0.6-0.8
		l-0.3-2.8l-5.6,0.7c-0.1-0.4-0.2-0.8-0.4-1.2l7.2-0.9l0.6,4.8c0.1,0.4,0,0.7-0.2,0.9c-0.2,0.2-0.5,0.4-0.8,0.4l-4,0.5l0.3,2.2
		C216,52.5,215.9,52.9,215.7,53.2z M218.9,63.5l0-0.1l0,0c-0.1-0.3-0.2-0.7-0.3-1l0.2,0l-0.2-1.6l-0.5,0.1c-0.1-0.4-0.2-0.7-0.3-1.1
		l0.7-0.1l-0.1-0.9l-0.8,0.1c-0.1-0.4-0.2-0.7-0.3-1.1l7-0.9l0.1,1.1l-4.9,0.6l0.1,0.9l2.2-0.3l0.7,5.6c0.1,0.5-0.2,0.8-0.7,0.9
		l-2,0.3C219.4,65.3,219.1,64.4,218.9,63.5z M224.3,67.5l-4,0.5c-0.1-0.4-0.2-0.7-0.3-1.1l3.5-0.4c0.2,0,0.2-0.1,0.2-0.3l-0.9-7.2
		l1.2-0.1l1,7.7C224.9,67.2,224.7,67.5,224.3,67.5z M229.6,62.3c-0.2,0.2-0.5,0.4-0.8,0.4c-0.3,0-0.6,0-0.9-0.2
		c-0.2-0.2-0.4-0.4-0.4-0.7c0-0.3,0-0.6,0.2-0.8c0.2-0.3,0.5-0.4,0.8-0.4c0.3,0,0.6,0,0.8,0.2c0.2,0.2,0.4,0.4,0.4,0.7
		C229.8,61.8,229.7,62.1,229.6,62.3z M235.8,71.9l-3.3,0.4l-0.2-1.2l3.8-0.5C236,71.1,235.9,71.6,235.8,71.9z M237.7,65.8l-5.9,0.7
		l-0.2-1.2l6.5-0.8C238,65,237.9,65.4,237.7,65.8z M239.3,61l-0.5-3.7l-8,1l-0.2-1.2l9.3-1.1l0.3,2C239.9,59,239.6,60,239.3,61z
		 M243.4,48.4l-1,0.1c-0.3,0-0.6,0-0.7,0c-0.2-0.1-0.4-0.2-0.8-0.4l-1.9-1.2l-1,3c-0.3,0.8-0.7,1.2-1.4,1.3l-2.7,0.3l-0.1-1.2
		l1.7-0.2c0.6-0.1,1.1-0.5,1.3-1.2l0.9-2.7l-2.4-1.5c-0.4-0.3-0.8-0.3-1.3-0.3l-1,0.1l-0.1-1.2l1.4-0.2c0.4,0,0.6-0.1,0.8,0
		c0.2,0,0.5,0.2,0.8,0.3l2.4,1.5l1.5-4.5l1.5-0.2l-1.8,5.5l1.9,1.2c0.4,0.3,1,0.4,1.6,0.3l0.9-0.1l0,0.1
		C243.6,47.5,243.5,47.9,243.4,48.4z M243.5,16.5c-0.2-0.2-0.4-0.4-0.4-0.7c0-0.3,0-0.6,0.2-0.8c0.2-0.2,0.5-0.4,0.8-0.4
		c0.3,0,0.6,0,0.8,0.2c0.2,0.2,0.4,0.4,0.4,0.7c0,0.3,0,0.6-0.2,0.8c-0.2,0.2-0.5,0.4-0.8,0.4C244,16.7,243.7,16.6,243.5,16.5z
		 M246.7,30.8c-0.2,0.2-0.5,0.4-0.8,0.4c-0.3,0-0.6,0-0.9-0.2c-0.2-0.2-0.4-0.4-0.4-0.7c0-0.3,0-0.6,0.2-0.8
		c0.2-0.2,0.5-0.4,0.8-0.4c0.3,0,0.6,0,0.8,0.2c0.2,0.2,0.4,0.4,0.4,0.7C247,30.3,246.9,30.5,246.7,30.8z M247.4,20.5l-0.2-1.2
		l6.9-0.8c0.3,0,0.6-0.2,0.7-0.4c0.2-0.2,0.3-0.5,0.2-0.8l-0.7-5.9l-8,1l-0.1-1.2l9.3-1.1l0.9,7.7c0.1,0.5,0,1-0.3,1.4
		c-0.3,0.4-0.7,0.6-1.2,0.6L247.4,20.5z M249,35l-0.1-1.2l2.4-0.3c0.3,0,0.6-0.2,0.7-0.4c0.2-0.2,0.3-0.5,0.2-0.8l-0.7-5.4l1.3-0.2
		l0.3,2.6l3.1-0.4c0.5-0.1,0.7-0.3,0.7-0.8l-0.3-2.8l-8.7,1.1l-0.2-1.2l10-1.2l0.6,4.8c0,0.4,0,0.7-0.2,0.9
		c-0.2,0.2-0.5,0.4-0.8,0.4l-4,0.5l0.3,2.2c0.1,0.6,0,1-0.3,1.4c-0.3,0.4-0.7,0.6-1.2,0.6L249,35z M270.2,77
		c-0.8,0.5-1.7,0.9-2.6,1.1c-0.9,0.2-2.2,0.4-3.9,0.5c-0.4,0-0.6,0-0.8,0c-0.1,0-0.3,0-0.5,0l-0.3,1.4c-1,3.4-1.9,6.1-2.8,8.2
		c-0.9,2.1-1.7,3.4-2.4,3.9c-1,0.7-2.4,1-4.2,1c-2,0-3.3-0.3-4.1-0.9c-0.3-0.3-0.5-0.6-0.5-0.8c-0.1-0.2,0-0.7,0.1-1.3l0-0.2
		l0.1-0.2l0.1-0.3c1-4.8,2.4-9.5,4.5-14.3c2-4.8,4.4-9.2,7-13.1c2.6-3.9,5.3-7.1,8-9.4c2.7-2.3,5.1-3.5,7.4-3.5c1,0,1.7,0.3,2.1,0.8
		c0.4,0.5,0.5,1.3,0.4,2.2c-0.3,1.4-0.8,3-1.5,4.6c-0.7,1.6-1.5,2.9-2.2,4c-0.8,1-1.5,1.5-2.1,1.5c-0.5,0-0.7-0.7-0.4-2.1l0.1-0.5
		l0.1-0.3c0.3-1.4,0.4-2.4,0.4-2.8c0-0.4-0.1-0.7-0.4-0.9c-0.3,0.4-0.6,0.8-0.8,1.3c-0.9,2-1.7,3.9-2.3,5.5c-0.6,1.7-1.6,4.3-3,8
		c-0.1,0.2-0.1,0.4-0.2,0.7c-0.1,0.3-0.2,0.5-0.2,0.7h0.5c0.3,0,0.5,0,0.8,0c0.2,0,0.6,0,1,0c0.9-0.1,1.7-0.1,2.3-0.1
		c2.7,0,3.9,0.5,3.7,1.6c-0.1,0.5-0.5,1.2-1.1,2C271.7,75.9,271,76.5,270.2,77z M277,65.1c-0.2,0.2-0.4,0.4-0.6,0.6l-0.1-0.6
		L277,65.1z M272.9,65.6l1.3-0.2l0.6,1.6c0,0.1,0.1,0.2,0.2,0.2c-0.3,0.4-0.6,0.7-0.9,1.1c-0.1-0.1-0.2-0.2-0.3-0.4L272.9,65.6z
		 M273.6,69C273.6,69,273.6,69,273.6,69c-0.1,0-0.1,0-0.2,0L273.6,69z M294.3,80.2c-1.7,0.9-3.3,1.6-4.9,2.1c-1.5,0.6-3.1,1-4.6,1.3
		c-1.5,0.3-2.8,0.5-4,0.5c-2.8,0-5-0.6-6.4-1.8c-1.5-1.2-2-2.8-1.6-4.8c0.3-1.5,1.1-3.3,2.3-5.2c1.3-1.9,2.8-3.8,4.6-5.4
		c2.1-2,4.6-3.6,7.5-5c3.5-1.6,6.7-2.4,9.6-2.4c2.1,0,3.7,0.5,4.7,1.5c1,1,1.4,2.4,1,4.2c-0.3,1.4-1,2.8-2.2,4.3
		c-1.2,1.5-2.9,2.9-5.1,4.3c-1.7,1.2-3.4,2.1-5,2.7c-1.6,0.6-3,1-4.1,1c-0.5,0-1-0.1-1.5-0.3c0.1,1,0.9,1.5,2.4,1.5
		c1.7,0,4-0.7,7-2.3c1.7-0.9,2.9-1.3,3.4-1.3c0.7,0,1.3,0.1,1.8,0.4c0.5,0.3,0.8,0.5,0.7,0.8c-0.1,0.3-0.5,0.7-1.2,1.2
		C297.6,78.4,296,79.3,294.3,80.2z M320.5,62.8c-1.2,0.6-2,1-2.4,1.4c-1,0.8-1.8,1.6-2.5,2.5c-0.7,1-1.1,1.9-1.3,2.7
		c-0.1,0.6,0,1.1,0.3,1.5c0.3,0.4,0.9,0.7,1.7,0.9c0.8,0.3,2,0.5,3.7,0.8c2.8,0.5,4.7,1,5.8,1.5c0.3,0.1,0.6,0.4,1.1,0.7
		c0.7,0.7,1,1.6,0.8,2.7c-0.2,1.2-0.9,2.4-2.1,3.5c-1.2,1.2-2.9,2.4-5.2,3.7c-2.4,1.4-4.8,2.4-7,2.9c-2.2,0.6-4.7,0.9-7.3,0.9
		c-2.5,0-4.4-0.4-5.7-1.1c-1.3-0.7-1.8-1.8-1.6-3c0.2-0.9,0.8-1.8,1.9-2.8c1.1-0.9,2.4-1.7,4-2.3c1.5-0.6,3-0.9,4.3-0.9
		c1,0,1.5,0.2,1.4,0.5c0,0.2-0.2,0.5-0.6,0.8c-1.1,1.2-1.7,2.3-1.9,3.3c-0.1,0.7,0.1,1.4,0.7,2c1.3-0.1,2.7-0.5,3.9-1.5
		c1.3-0.9,2-1.9,2.2-3c0.1-0.7-0.1-1.3-0.7-1.8c-0.6-0.5-2.1-1-4.5-1.5c-3.5-0.8-5.6-1.6-6.5-2.6c-0.9-0.8-1.2-1.7-1-2.8
		c0.4-1.9,1.7-3.9,3.9-5.8c2.3-1.9,5-3.5,8.1-4.8c3.2-1.2,6.2-1.9,9.2-1.9c1.4,0,2.8,0.3,3.9,0.8c1.2,0.5,2,1.2,2.6,2
		c0.6,0.8,0.8,1.8,0.6,2.7c-0.2,1-0.8,2-1.8,3c-1,1-2.2,1.9-3.5,2.6c-1.4,0.7-2.6,1-3.7,1c-0.6,0-1.2-0.1-1.6-0.3
		c-0.4-0.2-0.6-0.4-0.6-0.7c0-0.2,0.2-0.6,0.5-1c0.8-1.5,1.3-2.7,1.5-3.8C321.4,64.8,321.2,63.7,320.5,62.8z M353.4,51.6
		c-0.1,0.4-0.6,1.2-1.4,2.4c-1.5,2-2.7,3.9-3.6,5.7c0.4,0,0.7,0.1,1.1,0.2c1.3,0.2,2.2,0.3,2.6,0.5c0.4,0.2,0.5,0.5,0.4,1
		c-0.2,0.9-0.6,1.7-1.4,2.5c-0.8,0.8-1.7,1.3-2.7,1.7c-0.8,0.3-2,0.4-3.7,0.5c-0.4,0.7-0.9,1.6-1.5,2.7c-0.4,1-0.9,2.4-1.5,4.2
		c-0.3,0.7-0.4,1.3-0.5,1.8c-0.5,2.7,1,4,4.4,4h0.3c0.4,0,0.6,0.1,0.6,0.2c0,0.3-0.5,0.7-1.4,1.4c-0.9,0.6-1.8,1.2-2.9,1.7
		c-1.1,0.5-2.2,0.9-3.5,1.2c-1.2,0.3-2.3,0.5-3.3,0.5c-2.4,0-4.2-0.6-5.4-1.8c-1.3-1.2-1.7-2.8-1.3-4.8c0.2-0.8,0.6-1.9,1.2-3.3
		c0.7-1.4,1.6-3.2,2.9-5.5c0.2-0.4,0.4-0.8,0.7-1.3c0.2-0.4,0.4-0.7,0.4-0.8c-0.9,0-1.5-0.2-1.9-0.4c-0.3-0.3-0.4-0.7-0.3-1.3
		c0.2-1.1,0.9-2.1,2.2-3c1.3-0.9,2.7-1.5,4.2-1.8l0.2-0.3c2.1-3.1,3.8-5.4,5.1-6.7c0.6-0.6,1.5-1.1,2.5-1.6c1.9-0.8,3.6-1.2,5.1-1.2
		c0.9,0,1.6,0.1,2,0.4C353.3,50.6,353.5,51,353.4,51.6z M150.6,12.8l-0.1-0.9l-1.1,0.1l0.1,0.9L150.6,12.8z M259.8,38.6l-4.6,0.6
		l0.1,0.6l4.6-0.6L259.8,38.6z M257.4,43l0.1,0.9l1.1-0.1l-0.1-0.9L257.4,43z M255.3,43.2l0.1,0.9l1.1-0.1l-0.1-0.9L255.3,43.2z
		 M259.4,42.7l0.1,0.9l0.8-0.1c0.2,0,0.3-0.1,0.2-0.3l-0.1-0.7L259.4,42.7z M277.4,7.2c0.1,0.1,0.3,0.1,0.4,0.1
		c0.2,0,0.3-0.1,0.4-0.2c0.1-0.1,0.1-0.3,0.1-0.4c0-0.2-0.1-0.3-0.2-0.4c-0.1-0.1-0.3-0.1-0.4-0.1c-0.1,0-0.3,0.1-0.4,0.2
		c-0.1,0.1-0.1,0.3-0.1,0.4C277.2,7,277.3,7.1,277.4,7.2z M266.6,44.5l1-0.1l-0.2-1.6l-1,0.1L266.6,44.5z M255.3,40.5l0.1,0.5
		l4.3-0.5c0.2,0,0.3-0.1,0.3-0.3l0-0.2L255.3,40.5z M150.1,56.1l-0.2-1.6l-1.1,0.1l0.2,1.6L150.1,56.1z M67.8,54.2l0.8-0.1
		c0.2,0,0.3-0.1,0.3-0.3l-0.2-1.4l-1.1,0.1L67.8,54.2z M58.9,49.1l-0.1-0.6l-4.6,0.6l0.1,0.6L58.9,49.1z M54.5,51l4.3-0.5
		c0.2,0,0.3-0.1,0.3-0.3l0-0.2l-4.6,0.6L54.5,51z M68.6,51.4l-0.2-1.6L67.3,50l0.2,1.6L68.6,51.4z M30.2,24.5l4.3-0.5
		c0.2,0,0.3-0.1,0.3-0.3l0-0.2L30.1,24L30.2,24.5z M65.3,51.8l1-0.1l-0.2-1.6l-1,0.1L65.3,51.8z M65.7,54.5l1-0.1l-0.2-1.6l-1,0.1
		L65.7,54.5z M43.5,27.7l0.8-0.1c0.2,0,0.3-0.1,0.3-0.3L44.4,26l-1.1,0.1L43.5,27.7z M146.9,56.5l1-0.1l-0.2-1.6l-1,0.1L146.9,56.5z
		 M34.2,26.2l0.1,0.9l0.8-0.1c0.2,0,0.3-0.1,0.2-0.3l-0.1-0.7L34.2,26.2z M32.2,26.5l0.1,0.9l1.1-0.1l-0.1-0.9L32.2,26.5z
		 M44.2,24.9l-0.2-1.6L43,23.5l0.2,1.6L44.2,24.9z M41.9,23.6l-1,0.1l0.2,1.6l1-0.1L41.9,23.6z M41.2,26.4l0.2,1.6l1-0.1l-0.2-1.6
		L41.2,26.4z M34.6,22.6l-0.1-0.6L30,22.6l0.1,0.6L34.6,22.6z M143.3,67c-0.1-0.1-0.3-0.1-0.4-0.1c-0.2,0-0.3,0.1-0.4,0.2
		c-0.1,0.1-0.1,0.3-0.1,0.4c0,0.2,0.1,0.3,0.2,0.4c0.1,0.1,0.3,0.1,0.4,0.1c0.2,0,0.3-0.1,0.4-0.2c0.1-0.1,0.1-0.3,0.1-0.4
		C143.5,67.2,143.4,67.1,143.3,67z M136.1,55.7l4.3-0.5c0.2,0,0.3-0.1,0.3-0.3l0-0.2l-4.6,0.6L136.1,55.7z M149.4,58.9l0.8-0.1
		c0.2,0,0.3-0.1,0.3-0.3l-0.2-1.4l-1.1,0.1L149.4,58.9z M140.5,53.8l-0.1-0.6l-4.6,0.6l0.1,0.6L140.5,53.8z M24,81.7
		c-0.1-0.1-0.3-0.1-0.4-0.1c-0.2,0-0.3,0.1-0.4,0.2C23.1,81.9,23,82,23,82.2c0,0.2,0.1,0.3,0.2,0.4c0.1,0.1,0.3,0.1,0.4,0.1
		c0.2,0,0.3-0.1,0.4-0.2c0.1-0.1,0.1-0.3,0.1-0.4C24.2,81.9,24.1,81.8,24,81.7z M30.1,26.7l0.1,0.9l1.1-0.1l-0.1-0.9L30.1,26.7z
		 M147.3,59.2l1-0.1l-0.2-1.6l-1,0.1L147.3,59.2z M140.1,57.4l0.1,0.9l0.8-0.1c0.2,0,0.3-0.1,0.2-0.3l-0.1-0.7L140.1,57.4z
		 M71.8,61.9c0.1,0.1,0.3,0.1,0.4,0.1c0.2,0,0.3-0.1,0.4-0.2c0.1-0.1,0.1-0.3,0.1-0.4c0-0.2-0.1-0.3-0.2-0.4
		c-0.1-0.1-0.3-0.1-0.4-0.1c-0.2,0-0.3,0.1-0.4,0.2c-0.1,0.1-0.1,0.3-0.1,0.4C71.6,61.7,71.7,61.8,71.8,61.9z M87.5,78.6l0.1,0.9
		l1.1-0.1l-0.1-0.9L87.5,78.6z M136,57.9l0.1,0.9l1.1-0.1l-0.1-0.9L136,57.9z M138,57.6l0.1,0.9l1.1-0.1l-0.1-0.9L138,57.6z
		 M155.9,9.6V28h23.2c1.1,0,1.6-0.6,1.6-1.7V9.6h-3.1v15.5c0,0.3-0.2,0.5-0.6,0.5H159v-16H155.9z M166.8,9.9h-5.5v13.9h11.9
		c1.3,0,2-0.6,2-1.7V9.9h-5.6v-2h12.5V5.4h-27.4v2.4h12.2L166.8,9.9L166.8,9.9z M166.8,21.4h-2.6v-3.5h2.6V21.4z M166.8,15.6h-2.6
		v-3.4h2.6V15.6z M169.6,12.2h2.7v3.4h-2.7V12.2z M169.6,17.9h2.7v3c0,0.4-0.2,0.6-0.7,0.6h-2L169.6,17.9L169.6,17.9z"/>
</g>
</svg>
